<svg width="1920" height="1080" viewBox="0 0 1920 1080" fill="none" xmlns="http://www.w3.org/2000/svg">
<path opacity="0.0144928" d="M1767.33 1616.68C1776.39 1621.49 1787.53 1619.73 1794.65 1612.36L2031.93 1366.95C2036.14 1362.6 2038.47 1356.75 2038.39 1350.69L2032.52 863.124C2032.46 858.357 2030.92 853.726 2028.12 849.871L1776.7 504.275C1771.62 497.285 1763.04 493.737 1754.5 495.089L1460.26 541.692C1451.72 543.044 1444.67 549.069 1441.99 557.288L1309.68 963.661C1308.2 968.194 1308.17 973.074 1309.59 977.625L1454.66 1443.14C1456.47 1448.93 1460.48 1453.77 1465.84 1456.61L1767.33 1616.68Z" stroke="url(#paint0_linear_358_70)" stroke-width="4"/>
<path opacity="0.0289855" d="M1713.88 1615.16C1722.66 1620.41 1733.84 1619.23 1741.33 1612.27L1989.71 1381.69C1994.16 1377.56 1996.79 1371.83 1997.04 1365.77L2016.74 883.042C2016.93 878.264 2015.64 873.544 2013.02 869.539L1781.56 514.649C1776.85 507.418 1768.48 503.437 1759.89 504.339L1465.37 535.295C1456.79 536.197 1449.43 541.831 1446.32 549.884L1293.7 945.143C1291.98 949.604 1291.69 954.49 1292.87 959.123L1412.51 1427.21C1414.01 1433.09 1417.78 1438.14 1422.99 1441.25L1713.88 1615.16Z" stroke="url(#paint1_linear_358_70)" stroke-width="4"/>
<path opacity="0.0434783" d="M1660.84 1612.02C1669.32 1617.68 1680.51 1617.1 1688.35 1610.57L1946.93 1395.28C1951.6 1391.39 1954.54 1385.81 1955.11 1379.76L1999.86 903.199C2000.31 898.423 1999.26 893.627 1996.84 889.482L1785.62 526.428C1781.28 518.976 1773.14 514.575 1764.53 515.026L1470.56 530.433C1461.95 530.884 1454.31 536.112 1450.78 543.976L1278.66 927.12C1276.69 931.495 1276.14 936.375 1277.09 941.077L1371.41 1410.35C1372.61 1416.31 1376.12 1421.55 1381.17 1424.93L1660.84 1612.02Z" stroke="url(#paint2_linear_358_70)" stroke-width="4"/>
<path opacity="0.057971" d="M1608.3 1607.29C1616.45 1613.36 1627.63 1613.36 1635.78 1607.29L1903.65 1407.73C1908.53 1404.09 1911.78 1398.66 1912.66 1392.64L1981.88 923.534C1982.58 918.774 1981.77 913.914 1979.57 909.638L1788.79 539.557C1784.84 531.905 1776.95 527.096 1768.35 527.096L1475.73 527.096C1467.12 527.096 1459.23 531.904 1455.29 539.557L1264.51 909.638C1262.31 913.914 1261.5 918.774 1262.2 923.534L1331.41 1392.64C1332.3 1398.66 1335.54 1404.09 1340.42 1407.73L1608.3 1607.29Z" stroke="url(#paint3_linear_358_70)" stroke-width="4"/>
<path opacity="0.0724638" d="M1556.33 1601.02C1564.15 1607.48 1575.27 1608.07 1583.71 1602.46L1859.94 1419C1865.02 1415.63 1868.56 1410.37 1869.76 1404.4L1962.78 943.986C1963.74 939.255 1963.18 934.344 1961.19 929.947L1791.02 553.974C1787.47 546.141 1779.85 540.94 1771.27 540.49L1480.81 525.268C1472.23 524.818 1464.11 529.195 1459.76 536.614L1251.22 892.739C1248.78 896.904 1247.72 901.73 1248.17 906.535L1292.55 1374.15C1293.13 1380.22 1296.09 1385.81 1300.79 1389.7L1556.33 1601.02Z" stroke="url(#paint4_linear_358_70)" stroke-width="4"/>
<path opacity="0.0869565" d="M1505.02 1593.26C1512.48 1600.09 1523.52 1601.25 1532.23 1596.12L1815.87 1429.09C1821.13 1425.99 1824.95 1420.93 1826.47 1415.01L1942.57 964.493C1943.78 959.805 1943.48 954.855 1941.71 950.348L1792.23 569.616C1789.1 561.624 1781.77 556.045 1773.23 555.147L1485.72 524.929C1477.19 524.032 1468.86 527.966 1464.13 535.131L1238.76 876.465C1236.09 880.505 1234.76 885.284 1234.97 890.121L1254.87 1354.93C1255.13 1361.04 1257.81 1366.78 1262.31 1370.91L1505.02 1593.26Z" stroke="url(#paint5_linear_358_70)" stroke-width="4"/>
<path opacity="0.101449" d="M1454.45 1584.06C1461.53 1591.24 1472.46 1592.97 1481.41 1588.33L1771.5 1437.99C1776.93 1435.18 1781.02 1430.32 1782.85 1424.48L1921.26 984.996C1922.72 980.363 1922.68 975.387 1921.13 970.781L1792.38 586.415C1789.66 578.285 1782.64 572.345 1774.17 571.004L1490.38 526.056C1481.91 524.715 1473.4 528.195 1468.3 535.086L1227.08 860.853C1224.19 864.757 1222.6 869.475 1222.56 874.332L1218.39 1335.08C1218.33 1341.19 1220.72 1347.08 1225.01 1351.44L1454.45 1584.06Z" stroke="url(#paint6_linear_358_70)" stroke-width="4"/>
<path opacity="0.115942" d="M1404.68 1573.47C1411.37 1580.97 1422.15 1583.27 1431.31 1579.13L1726.89 1445.7C1732.48 1443.18 1736.82 1438.53 1738.97 1432.79L1898.85 1005.43C1900.56 1000.87 1900.77 995.879 1899.46 991.186L1791.41 604.302C1789.11 596.056 1782.41 589.772 1774.04 587.992L1494.71 528.62C1486.34 526.84 1477.67 529.858 1472.21 536.455L1216.14 845.941C1213.03 849.695 1211.2 854.339 1210.9 859.203L1183.14 1314.65C1182.76 1320.76 1184.85 1326.77 1188.92 1331.35L1404.68 1573.47Z" stroke="url(#paint7_linear_358_70)" stroke-width="4"/>
<path opacity="0.130435" d="M1355.78 1561.55C1362.06 1569.36 1372.68 1572.2 1382.02 1568.58L1682.12 1452.21C1687.84 1449.99 1692.44 1445.58 1694.89 1439.95L1875.36 1025.74C1877.31 1021.26 1877.79 1016.27 1876.71 1011.5L1789.26 623.204C1787.38 614.864 1781.03 608.254 1772.78 606.041L1498.64 532.588C1490.39 530.375 1481.58 532.925 1475.79 539.209L1205.9 831.761C1202.59 835.355 1200.5 839.912 1199.95 844.77L1149.14 1293.72C1148.45 1299.82 1150.23 1305.94 1154.07 1310.72L1355.78 1561.55Z" stroke="url(#paint8_linear_358_70)" stroke-width="4"/>
<path opacity="0.144928" d="M1307.82 1548.35C1313.68 1556.45 1324.1 1559.83 1333.59 1556.73L1637.24 1457.53C1643.09 1455.62 1647.92 1451.45 1650.67 1445.95L1850.79 1045.87C1852.99 1041.49 1853.72 1036.51 1852.89 1031.68L1785.9 643.048C1784.45 634.635 1778.46 627.718 1770.34 625.08L1502.1 537.924C1493.98 535.286 1485.07 537.362 1478.95 543.315L1196.32 818.346C1192.81 821.767 1190.48 826.223 1189.67 831.063L1116.41 1272.36C1115.41 1278.43 1116.87 1284.64 1120.47 1289.62L1307.82 1548.35Z" stroke="url(#paint9_linear_358_70)" stroke-width="4"/>
<path opacity="0.15942" d="M1260.86 1533.96C1266.29 1542.31 1276.48 1546.22 1286.1 1543.64L1592.33 1461.66C1598.28 1460.07 1603.34 1456.16 1606.38 1450.8L1825.17 1065.76C1827.6 1061.48 1828.6 1056.53 1828.01 1051.65L1781.27 663.755C1780.25 655.293 1774.63 648.089 1766.68 645.034L1505.01 544.589C1497.05 541.535 1488.06 543.131 1481.64 548.737L1187.35 805.723C1183.65 808.961 1181.08 813.303 1180.02 818.111L1084.97 1250.65C1083.65 1256.67 1084.79 1262.96 1088.15 1268.12L1260.86 1533.96Z" stroke="url(#paint10_linear_358_70)" stroke-width="4"/>
<path opacity="0.173913" d="M1214.96 1518.42C1219.94 1527.01 1229.87 1531.43 1239.59 1529.39L1547.44 1464.61C1553.47 1463.34 1558.75 1459.7 1562.07 1454.51L1798.52 1085.35C1801.18 1081.19 1802.43 1076.29 1802.09 1071.36L1775.35 685.249C1774.76 676.759 1769.53 669.288 1761.76 665.827L1507.31 552.54C1499.54 549.078 1490.49 550.193 1483.78 555.436L1178.95 793.919C1175.06 796.962 1172.25 801.178 1170.95 805.941L1054.82 1228.67C1053.19 1234.61 1054.01 1240.97 1057.1 1246.3L1214.96 1518.42Z" stroke="url(#paint11_linear_358_70)" stroke-width="4"/>
<path opacity="0.188406" d="M1170.16 1501.82C1174.69 1510.62 1184.34 1515.54 1194.12 1514.03L1502.64 1466.4C1508.74 1465.46 1514.21 1462.1 1517.81 1457.08L1770.85 1104.59C1773.74 1100.57 1775.25 1095.71 1775.16 1090.76L1768.1 707.449C1767.94 698.954 1763.11 691.237 1755.54 687.38L1508.94 561.729C1501.37 557.872 1492.29 558.502 1485.32 563.369L1171.07 782.957C1167 785.796 1163.97 789.872 1162.41 794.578L1025.97 1206.48C1024.03 1212.34 1024.53 1218.74 1027.35 1224.23L1170.16 1501.82Z" stroke="url(#paint12_linear_358_70)" stroke-width="4"/>
<path opacity="0.202899" d="M1126.52 1484.22C1130.58 1493.21 1139.93 1498.61 1149.75 1497.63L1457.98 1467.04C1464.14 1466.43 1469.79 1463.37 1473.66 1458.54L1742.2 1123.43C1745.31 1119.55 1747.08 1114.76 1747.24 1109.79L1759.49 730.275C1759.76 721.797 1755.35 713.856 1748 709.615L1509.83 572.108C1502.49 567.867 1493.4 568.013 1486.2 572.49L1163.65 772.858C1159.43 775.483 1156.17 779.407 1154.36 784.042L998.418 1184.16C996.172 1189.92 996.342 1196.35 998.891 1201.99L1126.52 1484.22Z" stroke="url(#paint13_linear_358_70)" stroke-width="4"/>
<path opacity="0.217391" d="M1084.07 1465.7C1087.67 1474.85 1096.69 1480.71 1106.51 1480.27L1413.53 1466.55C1419.72 1466.28 1425.54 1463.51 1429.67 1458.89L1712.59 1141.81C1715.91 1138.09 1717.94 1133.38 1718.35 1128.41L1749.5 753.646C1750.21 745.206 1746.21 737.063 1739.11 732.451L1509.94 583.624C1502.83 579.012 1493.77 578.676 1486.35 582.749L1156.66 763.639C1152.28 766.041 1148.8 769.802 1146.75 774.354L972.163 1161.78C969.616 1167.43 969.458 1173.87 971.724 1179.64L1084.07 1465.7Z" stroke="url(#paint14_linear_358_70)" stroke-width="4"/>
<path opacity="0.231884" d="M1042.87 1446.33C1045.99 1455.62 1054.65 1461.92 1064.45 1462.01L1369.35 1464.96C1375.56 1465.02 1381.53 1462.57 1385.9 1458.16L1682.06 1159.69C1685.59 1156.13 1687.86 1151.52 1688.53 1146.56L1738.12 777.478C1739.25 769.099 1735.69 760.777 1728.85 755.807L1509.2 596.222C1502.36 591.252 1493.34 590.436 1485.72 594.096L1150.03 755.316C1145.52 757.486 1141.83 761.071 1139.54 765.528L947.196 1139.43C944.356 1144.95 943.868 1151.38 945.844 1157.27L1042.87 1446.33Z" stroke="url(#paint15_linear_358_70)" stroke-width="4"/>
<path opacity="0.246377" d="M1002.93 1426.19C1005.57 1435.6 1013.86 1442.31 1023.61 1442.93L1325.49 1462.28C1331.69 1462.68 1337.8 1460.55 1342.4 1456.37L1650.64 1177.02C1654.36 1173.64 1656.88 1169.14 1657.8 1164.19L1725.34 801.69C1726.88 793.392 1723.76 784.915 1717.2 779.603L1507.56 609.844C1501 604.532 1492.06 603.24 1484.27 606.477L1143.73 747.902C1139.08 749.831 1135.2 753.23 1132.67 757.578L923.506 1117.16C920.379 1122.53 919.562 1128.95 921.242 1134.93L1002.93 1426.19Z" stroke="url(#paint16_linear_358_70)" stroke-width="4"/>
<path opacity="0.26087" d="M964.3 1405.36C966.454 1414.86 974.349 1421.96 984.014 1423.11L1282 1458.56C1288.18 1459.29 1294.4 1457.49 1299.24 1453.55L1618.36 1193.75C1622.28 1190.56 1625.04 1186.18 1626.21 1181.27L1711.13 826.198C1713.09 818.004 1710.41 809.394 1704.15 803.756L1504.99 624.43C1498.73 618.793 1489.89 617.03 1481.94 619.835L1137.7 741.405C1132.94 743.087 1128.86 746.288 1126.1 750.516L901.078 1095.05C897.671 1100.27 896.526 1106.64 897.904 1112.72L964.3 1405.36Z" stroke="url(#paint17_linear_358_70)" stroke-width="4"/>
<path opacity="0.275362" d="M926.992 1383.92C928.66 1393.48 936.141 1400.96 945.695 1402.63L1238.94 1453.8C1245.08 1454.88 1251.4 1453.41 1256.45 1449.73L1585.27 1209.85C1589.37 1206.86 1592.36 1202.6 1593.79 1197.74L1695.51 850.921C1697.87 842.851 1695.65 834.132 1689.7 828.185L1501.43 639.919C1495.49 633.972 1486.77 631.746 1478.7 634.113L1131.88 735.833C1127.02 737.26 1122.76 740.254 1119.77 744.349L879.891 1073.17C876.213 1078.22 874.742 1084.54 875.815 1090.68L926.992 1383.92Z" stroke="url(#paint18_linear_358_70)" stroke-width="4"/>
<path opacity="0.289855" d="M891.03 1361.95C892.211 1371.54 899.261 1379.38 908.676 1381.55L1196.35 1448.06C1202.44 1449.47 1208.84 1448.34 1214.08 1444.93L1551.41 1225.26C1555.67 1222.48 1558.89 1218.37 1560.57 1213.57L1678.47 875.777C1681.23 867.851 1679.46 859.047 1673.84 852.808L1496.86 656.248C1491.24 650.009 1482.67 647.327 1474.5 649.249L1126.24 731.19C1121.28 732.356 1116.86 735.131 1113.65 739.082L859.924 1051.59C855.983 1056.45 854.188 1062.7 854.952 1068.9L891.03 1361.95Z" stroke="url(#paint19_linear_358_70)" stroke-width="4"/>
<path opacity="0.304348" d="M856.429 1339.53C857.124 1349.14 863.727 1357.29 872.975 1359.97L1154.29 1441.37C1160.31 1443.11 1166.77 1442.32 1172.2 1439.19L1516.81 1239.96C1521.23 1237.4 1524.68 1233.44 1526.6 1228.71L1660.01 900.684C1663.17 892.922 1661.85 884.057 1656.58 877.545L1491.23 673.351C1485.95 666.839 1477.56 663.71 1469.31 665.184L1120.71 727.478C1115.68 728.376 1111.1 730.924 1107.67 734.719L841.149 1030.38C836.955 1035.03 834.84 1041.19 835.292 1047.44L856.429 1339.53Z" stroke="url(#paint20_linear_358_70)" stroke-width="4"/>
<path opacity="0.318841" d="M823.199 1316.74C823.41 1326.33 829.551 1334.78 838.606 1337.95L1112.8 1433.76C1118.72 1435.83 1125.23 1435.39 1130.83 1432.54L1481.53 1253.91C1486.1 1251.58 1489.76 1247.79 1491.93 1243.14L1640.16 925.563C1643.7 917.984 1642.84 909.083 1637.92 902.316L1484.51 691.162C1479.6 684.395 1471.39 680.831 1463.09 681.853L1115.25 724.693C1110.16 725.32 1105.43 727.632 1101.8 731.259L823.535 1009.59C819.099 1014.03 816.668 1020.09 816.806 1026.36L823.199 1316.74Z" stroke="url(#paint21_linear_358_70)" stroke-width="4"/>
<path opacity="0.333333" d="M791.346 1293.66C791.077 1303.21 796.742 1311.94 805.578 1315.58L1071.92 1425.27C1077.73 1427.67 1084.27 1427.58 1090.02 1425.03L1445.6 1267.07C1450.31 1264.98 1454.18 1261.37 1456.59 1256.81L1618.92 950.335C1622.83 942.958 1622.43 934.043 1617.88 927.043L1476.68 709.613C1472.14 702.612 1464.15 698.625 1455.83 699.194L1109.82 722.834C1104.68 723.185 1099.81 725.251 1095.98 728.701L807.049 989.295C802.381 993.506 799.64 999.443 799.463 1005.73L791.346 1293.66Z" stroke="url(#paint22_linear_358_70)" stroke-width="4"/>
<path opacity="0.347826" d="M760.872 1270.37C760.128 1279.86 765.305 1288.83 773.896 1292.93L1031.69 1415.95C1037.38 1418.67 1043.92 1418.93 1049.81 1416.68L1409.08 1279.42C1413.91 1277.57 1417.98 1274.15 1420.63 1269.71L1596.31 974.922C1600.58 967.765 1600.64 958.862 1596.48 951.647L1467.72 728.637C1463.55 721.423 1455.81 717.024 1447.48 717.14L1104.35 721.893C1099.18 721.965 1094.18 723.778 1090.17 727.039L791.654 969.548C786.766 973.519 783.72 979.321 783.227 985.6L760.872 1270.37Z" stroke="url(#paint23_linear_358_70)" stroke-width="4"/>
<path opacity="0.362319" d="M731.774 1246.95C730.56 1256.35 735.24 1265.54 743.561 1270.08L992.155 1405.84C997.693 1408.87 1004.23 1409.49 1010.24 1407.55L1372.02 1290.93C1376.96 1289.33 1381.22 1286.11 1384.1 1281.79L1572.37 999.249C1576.98 992.33 1577.49 983.462 1573.72 976.054L1457.6 748.165C1453.83 740.757 1446.35 735.963 1438.04 735.626L1098.8 721.861C1093.61 721.65 1088.51 723.203 1084.31 726.266L777.309 950.406C772.213 954.127 768.87 959.778 768.061 966.036L731.774 1246.95Z" stroke="url(#paint24_linear_358_70)" stroke-width="4"/>
<path opacity="0.376812" d="M704.043 1223.48C702.366 1232.77 706.54 1242.15 714.568 1247.12L953.341 1394.99C958.716 1398.32 965.223 1399.29 971.335 1397.67L1334.46 1301.57C1339.51 1300.24 1343.95 1297.23 1347.05 1293.04L1547.11 1023.24C1552.05 1016.58 1553.02 1007.77 1549.64 1000.19L1446.32 768.127C1442.95 760.548 1435.75 755.373 1427.49 754.586L1093.13 722.726C1087.94 722.231 1082.73 723.517 1078.37 726.372L763.972 931.926C758.68 935.385 755.046 940.87 753.924 947.092L704.043 1223.48Z" stroke="url(#paint25_linear_358_70)" stroke-width="4"/>
<path opacity="0.391304" d="M677.668 1200.03C675.536 1209.19 679.196 1218.73 686.909 1224.11L915.282 1383.44C920.477 1387.06 926.936 1388.38 933.137 1387.09L1296.46 1311.33C1301.59 1310.26 1306.2 1307.47 1309.53 1303.43L1520.56 1046.83C1525.82 1040.44 1527.24 1031.71 1524.27 1023.98L1433.86 788.455C1430.89 780.725 1424 775.187 1415.81 773.954L1087.29 724.474C1082.11 723.694 1076.82 724.706 1072.29 727.344L751.595 914.157C746.122 917.346 742.206 922.65 740.771 928.819L677.668 1200.03Z" stroke="url(#paint26_linear_358_70)" stroke-width="4"/>
<path opacity="0.405797" d="M652.632 1176.69C650.056 1185.69 653.197 1195.36 660.573 1201.13L878.009 1371.23C883.008 1375.14 889.4 1376.82 895.673 1375.85L1258.07 1320.19C1263.27 1319.39 1268.05 1316.83 1271.59 1312.94L1492.77 1069.95C1498.33 1063.84 1500.19 1055.22 1497.64 1047.36L1420.22 809.08C1417.66 801.222 1411.09 795.338 1403 793.664L1081.23 727.089C1076.08 726.023 1070.72 726.757 1066.04 729.168L740.132 897.149C734.491 900.057 730.302 905.166 728.557 911.268L652.632 1176.69Z" stroke="url(#paint27_linear_358_70)" stroke-width="4"/>
<path opacity="0.42029" d="M628.913 1153.52C625.904 1162.35 628.521 1172.12 635.541 1178.26L841.545 1358.43C846.332 1362.62 852.638 1364.63 858.966 1364L1219.34 1328.13C1224.6 1327.61 1229.52 1325.28 1233.28 1321.56L1463.78 1092.53C1469.62 1086.72 1471.91 1078.22 1469.78 1070.26L1405.39 829.932C1403.25 821.969 1397.02 815.757 1389.05 813.649L1074.92 730.552C1069.8 729.2 1064.38 729.65 1059.56 731.828L729.531 880.947C723.736 883.565 719.284 888.466 717.232 894.485L628.913 1153.52Z" stroke="url(#paint28_linear_358_70)" stroke-width="4"/>
<path opacity="0.434783" d="M606.488 1130.6C603.057 1139.23 605.149 1149.07 611.793 1155.56L805.915 1345.08C810.475 1349.53 816.676 1351.89 823.041 1351.59L1180.33 1335.14C1185.63 1334.89 1190.69 1332.82 1194.64 1329.27L1433.62 1114.5C1439.73 1109 1442.45 1100.66 1440.74 1092.61L1389.37 850.944C1387.66 842.899 1381.79 836.379 1373.96 833.845L1068.29 734.842C1063.24 733.205 1057.78 733.368 1052.83 735.303L719.738 865.593C713.804 867.914 709.099 872.592 706.745 878.513L606.488 1130.6Z" stroke="url(#paint29_linear_358_70)" stroke-width="4"/>
<path opacity="0.449275" d="M585.327 1108C581.487 1116.41 583.054 1126.3 589.304 1133.11L771.139 1331.22C775.456 1335.92 781.534 1338.62 787.918 1338.67L1141.08 1341.21C1146.42 1341.25 1151.6 1339.43 1155.75 1336.06L1402.34 1135.81C1408.71 1130.64 1411.84 1122.46 1410.56 1114.36L1372.18 872.048C1370.89 863.944 1365.39 857.137 1357.73 854.186L1061.33 739.936C1056.35 738.016 1050.86 737.888 1045.79 739.574L710.699 851.125C704.641 853.142 699.695 857.585 697.042 863.393L585.327 1108Z" stroke="url(#paint30_linear_358_70)" stroke-width="4"/>
<path opacity="0.463768" d="M565.399 1085.78C561.164 1093.95 562.205 1103.86 568.046 1110.97L737.232 1316.91C741.293 1321.86 747.229 1324.89 753.615 1325.27L1101.66 1346.33C1107.01 1346.66 1112.31 1345.1 1116.64 1341.93L1369.99 1156.4C1376.6 1151.57 1380.13 1143.58 1379.28 1135.44L1353.81 893.179C1352.96 885.038 1347.84 877.965 1340.37 874.607L1053.98 745.808C1049.09 743.608 1043.58 743.187 1038.41 744.617L702.356 837.579C696.191 839.285 691.014 843.481 688.069 849.161L565.399 1085.78Z" stroke="url(#paint31_linear_358_70)" stroke-width="4"/>
<path opacity="0.478261" d="M546.667 1064.02C542.052 1071.93 542.571 1081.82 547.987 1089.21L704.21 1302.21C708.001 1307.38 713.778 1310.73 720.147 1311.46L1062.11 1350.51C1067.46 1351.12 1072.86 1349.83 1077.36 1346.87L1336.63 1176.22C1343.45 1171.73 1347.38 1163.96 1346.95 1155.8L1334.29 914.271C1333.87 906.116 1329.15 898.799 1321.89 895.047L1046.21 752.432C1041.42 749.956 1035.92 749.239 1030.66 750.407L694.652 824.987C688.394 826.376 682.999 830.314 679.769 835.851L546.667 1064.02Z" stroke="url(#paint32_linear_358_70)" stroke-width="4"/>
<path opacity="0.492754" d="M529.092 1042.77C524.113 1050.4 524.113 1060.26 529.092 1067.89L672.083 1287.16C675.592 1292.54 681.191 1296.21 687.526 1297.28L1022.49 1353.74C1027.83 1354.64 1033.32 1353.63 1037.98 1350.88L1302.3 1195.21C1309.32 1191.08 1313.63 1183.54 1313.63 1175.4L1313.63 935.261C1313.63 927.115 1309.32 919.577 1302.3 915.443L1037.98 759.779C1033.32 757.03 1027.83 756.017 1022.49 756.917L687.526 813.376C681.191 814.444 675.592 818.112 672.083 823.493L529.092 1042.77Z" stroke="url(#paint33_linear_358_70)" stroke-width="4"/>
<path opacity="0.507246" d="M512.631 1022.09C507.304 1029.43 506.791 1039.22 511.322 1047.08L640.859 1271.82C644.073 1277.4 649.478 1281.37 655.76 1282.78L982.849 1356.02C988.161 1357.21 993.723 1356.48 998.545 1353.96L1267.07 1213.34C1274.27 1209.57 1278.95 1202.28 1279.37 1194.17L1291.85 956.087C1292.28 947.972 1288.39 940.236 1281.62 935.735L1029.26 767.818C1024.73 764.802 1019.28 763.492 1013.87 764.12L680.916 802.772C674.522 803.514 668.731 806.902 664.951 812.113L512.631 1022.09Z" stroke="url(#paint34_linear_358_70)" stroke-width="4"/>
<path opacity="0.521739" d="M497.239 1002.04C491.582 1009.07 490.563 1018.77 494.634 1026.82L610.543 1256.24C613.452 1262 618.646 1266.27 624.857 1268.01L943.245 1357.37C948.513 1358.85 954.136 1358.4 959.103 1356.11L1231 1230.55C1238.36 1227.15 1243.39 1220.13 1244.23 1212.07L1268.97 976.688C1269.82 968.628 1266.36 960.717 1259.87 955.864L1020.02 776.517C1015.64 773.24 1010.23 771.633 1004.77 771.984L674.762 793.194C668.324 793.608 662.356 796.706 658.313 801.734L497.239 1002.04Z" stroke="url(#paint35_linear_358_70)" stroke-width="4"/>
<path opacity="0.536232" d="M482.866 982.671C476.897 989.383 475.381 998.955 478.984 1007.18L581.137 1240.46C583.731 1246.39 588.696 1250.94 594.819 1253.02L903.727 1357.79C908.936 1359.55 914.605 1359.39 919.707 1357.34L1194.14 1246.8C1201.64 1243.78 1207 1237.05 1208.27 1229.07L1245.02 997.007C1246.29 989.024 1243.27 980.963 1237.07 975.774L1010.22 785.843C1006.01 782.312 1000.66 780.409 995.163 780.48L668.999 784.661C662.535 784.744 656.404 787.543 652.108 792.374L482.866 982.671Z" stroke="url(#paint36_linear_358_70)" stroke-width="4"/>
<path opacity="0.550725" d="M469.463 964.039C463.201 970.413 461.198 979.837 464.326 988.208L552.641 1224.55C554.909 1230.62 559.632 1235.45 565.647 1237.86L864.346 1357.28C869.481 1359.34 875.183 1359.47 880.408 1357.66L1156.57 1262.07C1164.18 1259.44 1169.86 1253 1171.54 1245.12L1220.03 1016.99C1221.71 1009.1 1219.13 1000.92 1213.25 995.41L999.844 795.761C995.806 791.983 990.542 789.787 985.017 789.574L663.566 777.185C657.092 776.936 650.813 779.428 646.273 784.05L469.463 964.039Z" stroke="url(#paint37_linear_358_70)" stroke-width="4"/>
<path opacity="0.565217" d="M456.974 946.186C450.439 952.21 447.96 961.461 450.608 969.947L525.051 1208.55C526.985 1214.75 531.449 1219.84 537.341 1222.57L825.152 1355.88C830.197 1358.22 835.918 1358.65 841.255 1357.09L1118.33 1276.32C1126.05 1274.07 1132.03 1267.96 1134.11 1260.19L1194.03 1036.58C1196.11 1028.81 1193.99 1020.52 1188.43 1014.72L988.857 806.234C985.012 802.218 979.843 799.73 974.305 799.231L658.398 770.776C651.931 770.194 645.519 772.372 640.745 776.773L456.974 946.186Z" stroke="url(#paint38_linear_358_70)" stroke-width="4"/>
<path opacity="0.57971" d="M445.346 929.155C438.557 934.819 435.615 943.872 437.779 952.444L498.36 1192.51C499.952 1198.82 504.143 1204.16 509.893 1207.2L786.194 1353.59C791.134 1356.2 796.859 1356.93 802.297 1355.64L1079.51 1289.53C1087.3 1287.67 1093.57 1281.88 1096.05 1274.26L1167.06 1055.72C1169.53 1048.1 1167.86 1039.74 1162.65 1033.65L977.237 817.225C973.599 812.98 968.54 810.204 963.005 809.418L653.431 765.44C646.988 764.525 640.459 766.381 635.462 770.55L445.346 929.155Z" stroke="url(#paint39_linear_358_70)" stroke-width="4"/>
<path opacity="0.594203" d="M434.519 912.987C427.497 918.279 424.107 927.111 425.784 935.741L472.56 1176.47C473.804 1182.88 477.707 1188.45 483.299 1191.81L747.519 1350.43C752.34 1353.32 758.053 1354.35 763.58 1353.32L1040.16 1301.66C1048.02 1300.19 1054.55 1294.76 1057.41 1287.3L1139.15 1074.37C1142.01 1066.91 1140.8 1058.5 1135.94 1052.15L964.963 828.697C961.546 824.232 956.613 821.173 951.094 820.098L648.601 761.179C642.2 759.932 635.569 761.461 630.361 765.387L434.519 912.987Z" stroke="url(#paint40_linear_358_70)" stroke-width="4"/>
<path opacity="0.608696" d="M424.434 897.716C417.201 902.627 413.378 911.214 414.568 919.876L447.638 1160.5C448.528 1166.97 452.131 1172.77 457.548 1176.43L709.174 1346.42C713.86 1349.59 719.548 1350.92 725.151 1350.16L1000.36 1312.71C1008.25 1311.63 1015.03 1306.55 1018.27 1299.27L1110.34 1092.49C1113.58 1085.21 1112.82 1076.77 1108.34 1070.19L952.016 840.61C948.833 835.936 944.04 832.598 938.552 831.234L643.847 757.991C637.503 756.414 630.788 757.612 625.38 761.283L424.434 897.716Z" stroke="url(#paint41_linear_358_70)" stroke-width="4"/>
<path opacity="0.623188" d="M415.032 883.374C407.608 887.896 403.368 896.218 404.073 904.882L423.58 1144.63C424.112 1151.16 427.403 1157.15 432.628 1161.1L671.203 1341.6C675.739 1345.03 681.386 1346.66 687.054 1346.18L960.172 1322.65C968.084 1321.97 975.086 1317.26 978.691 1310.18L1080.68 1110.02C1084.28 1102.95 1083.98 1094.51 1079.88 1087.71L938.378 852.924C935.441 848.053 930.804 844.442 925.361 842.789L639.104 755.871C632.835 753.968 626.052 754.828 620.456 758.237L415.032 883.374Z" stroke="url(#paint42_linear_358_70)" stroke-width="4"/>
<path opacity="0.637681" d="M406.248 869.988C398.656 874.115 394.017 882.15 394.239 890.789L400.371 1128.91C400.54 1135.47 403.507 1141.65 408.524 1145.89L633.649 1335.99C638.021 1339.68 643.613 1341.61 649.331 1341.4L919.664 1331.48C927.575 1331.19 934.781 1326.85 938.74 1320L1050.21 1126.93C1054.16 1120.08 1054.32 1111.67 1050.61 1104.67L924.034 865.599C921.357 860.542 916.89 856.664 911.507 854.724L634.312 754.811C628.134 752.584 621.299 753.104 615.529 756.24L406.248 869.988Z" stroke="url(#paint43_linear_358_70)" stroke-width="4"/>
<path opacity="0.652174" d="M398.022 857.584C390.282 861.309 385.263 869.037 385.008 877.623L377.99 1113.38C377.794 1119.95 380.427 1126.3 385.221 1130.81L596.553 1329.61C600.747 1333.55 606.267 1335.78 612.025 1335.85L878.907 1339.19C886.797 1339.29 894.186 1335.34 898.484 1328.72L1018.97 1143.19C1023.27 1136.57 1023.87 1128.21 1020.57 1121.05L908.973 878.594C906.565 873.364 902.284 869.227 896.974 867.001L629.408 754.797C623.338 752.252 616.468 752.429 610.538 755.284L398.022 857.584Z" stroke="url(#paint44_linear_358_70)" stroke-width="4"/>
<path opacity="0.666667" d="M390.288 846.18C382.423 849.5 377.044 856.903 376.317 865.409L356.417 1098.08C355.855 1104.65 358.143 1111.15 362.699 1115.92L559.955 1322.5C563.956 1326.69 569.391 1329.22 575.173 1329.57L837.967 1345.78C845.816 1346.27 853.369 1342.71 857.991 1336.34L987.019 1158.75C991.641 1152.39 992.693 1144.11 989.807 1136.79L893.183 891.869C891.057 886.48 886.975 882.091 881.754 879.581L624.335 755.815C618.388 752.956 611.501 752.788 605.423 755.354L390.288 846.18Z" stroke="url(#paint45_linear_358_70)" stroke-width="4"/>
<path opacity="0.681159" d="M382.982 835.791C375.015 838.703 369.297 845.764 368.105 854.163L335.629 1083.06C334.7 1089.61 336.635 1096.24 340.939 1101.26L523.891 1314.69C527.686 1319.12 533.02 1321.94 538.815 1322.58L796.914 1351.25C804.703 1352.11 812.396 1348.95 817.327 1342.86L954.401 1173.59C959.333 1167.5 960.824 1159.32 958.359 1151.88L876.657 905.381C874.823 899.846 870.955 895.215 865.836 892.424L619.032 757.844C613.226 754.678 606.338 754.165 600.126 756.435L382.982 835.791Z" stroke="url(#paint46_linear_358_70)" stroke-width="4"/>
<path opacity="0.695652" d="M376.04 826.432C367.991 828.933 361.956 835.636 360.309 843.902L315.599 1068.36C314.304 1074.86 315.878 1081.6 319.916 1086.86L488.396 1306.22C491.971 1310.87 497.189 1313.99 502.983 1314.92L755.814 1355.6C763.523 1356.84 771.335 1354.08 776.56 1348.28L921.166 1187.68C926.391 1181.88 928.315 1173.82 926.276 1166.28L859.389 919.089C857.856 913.425 854.216 908.56 849.213 905.492L613.443 760.863C607.792 757.397 600.921 756.537 594.59 758.505L376.04 826.432Z" stroke="url(#paint47_linear_358_70)" stroke-width="4"/>
<path opacity="0.710145" d="M369.397 818.108C361.29 820.199 354.959 826.529 352.868 834.637L296.302 1054C294.643 1060.44 295.848 1067.27 299.607 1072.75L453.504 1297.12C456.846 1301.99 461.934 1305.39 467.713 1306.62L714.733 1358.85C722.344 1360.46 730.253 1358.11 735.754 1352.61L887.367 1200.99C892.868 1195.49 895.215 1187.58 893.606 1179.97L841.375 932.953C840.153 927.173 836.754 922.086 831.883 918.744L607.514 764.846C602.034 761.088 595.196 759.883 588.761 761.542L369.397 818.108Z" stroke="url(#paint48_linear_358_70)" stroke-width="4"/>
<path opacity="0.724638" d="M362.988 810.825C354.844 812.505 348.241 818.45 345.719 826.374L277.707 1040.03C275.687 1046.38 276.518 1053.29 279.985 1058.98L419.245 1287.44C422.34 1292.52 427.283 1296.2 433.035 1297.71L673.736 1361C681.231 1362.97 689.215 1361.03 694.974 1355.85L853.054 1213.51C858.814 1208.33 861.574 1200.59 860.397 1192.93L822.615 946.931C821.713 941.052 818.567 935.752 813.84 932.142L601.191 769.765C595.896 765.722 589.109 764.173 582.585 765.519L362.988 810.825Z" stroke="url(#paint49_linear_358_70)" stroke-width="4"/>
<path opacity="0.73913" d="M356.749 804.581C348.59 805.853 341.739 811.401 338.798 819.118L259.785 1026.48C257.407 1032.72 257.859 1039.69 261.023 1045.57L385.646 1277.21C388.483 1282.48 393.266 1286.44 398.977 1288.24L632.886 1362.08C640.248 1364.4 648.285 1362.88 654.284 1358.02L818.281 1225.22C824.281 1220.36 827.443 1212.81 826.7 1205.13L803.11 960.981C802.534 955.02 799.656 949.519 795.087 945.647L594.422 775.587C589.327 771.27 582.608 769.379 576.01 770.408L356.749 804.581Z" stroke="url(#paint50_linear_358_70)" stroke-width="4"/>
<path opacity="0.753623" d="M350.617 799.375C342.465 800.241 335.389 805.381 332.046 812.867L242.503 1013.38C239.773 1019.49 239.842 1026.49 242.692 1032.55L352.734 1266.47C355.301 1271.93 359.91 1276.16 365.566 1278.25L592.248 1362.1C599.459 1364.77 607.526 1363.66 613.746 1359.14L783.101 1236.09C789.322 1231.57 792.872 1224.25 792.564 1216.56L782.863 975.065C782.621 969.038 780.021 963.348 775.624 959.22L587.159 782.279C582.279 777.697 575.644 775.468 568.987 776.176L350.617 799.375Z" stroke="url(#paint51_linear_358_70)" stroke-width="4"/>
<path opacity="0.768116" d="M344.53 795.197C336.405 795.662 329.13 800.386 325.401 807.62L225.828 1000.76C222.752 1006.72 222.436 1013.73 224.961 1019.95L320.532 1255.27C322.818 1260.89 327.237 1265.39 332.826 1267.77L551.879 1361.1C558.923 1364.1 566.999 1363.4 573.42 1359.23L747.568 1246.13C753.99 1241.96 757.915 1234.87 758.039 1227.21L761.879 989.141C761.977 983.067 759.668 977.201 755.456 972.823L579.356 789.803C574.703 784.967 568.169 782.405 561.469 782.788L344.53 795.197Z" stroke="url(#paint52_linear_358_70)" stroke-width="4"/>
<path opacity="0.782609" d="M338.426 792.037C330.349 792.106 322.9 796.407 318.802 803.368L209.725 988.636C206.311 994.434 205.608 1001.44 207.799 1007.8L289.06 1243.64C291.053 1249.43 295.271 1254.18 300.779 1256.85L511.839 1359.09C518.7 1362.41 526.763 1362.12 533.365 1358.31L711.736 1255.32C718.338 1251.51 722.623 1244.68 723.175 1237.07L740.166 1003.17C740.61 997.067 738.602 991.039 734.588 986.419L570.968 798.121C566.555 793.043 560.139 790.151 553.411 790.208L338.426 792.037Z" stroke="url(#paint53_linear_358_70)" stroke-width="4"/>
<path opacity="0.797101" d="M332.244 789.881C324.236 789.56 316.638 793.431 312.19 800.099L194.159 977.043C190.415 982.654 189.324 989.626 191.174 996.113L258.336 1231.65C260.027 1237.58 264.029 1242.58 269.442 1245.53L472.183 1356.11C478.847 1359.74 486.874 1359.85 493.637 1356.41L675.656 1263.67C682.419 1260.22 687.046 1253.66 688.023 1246.13L717.734 1017.12C718.528 1011 716.832 1004.82 713.029 999.971L561.954 807.191C557.794 801.882 551.512 798.667 544.772 798.396L332.244 789.881Z" stroke="url(#paint54_linear_358_70)" stroke-width="4"/>
<path opacity="0.811594" d="M325.927 788.709C318.007 788.006 310.285 791.444 305.508 797.8L179.093 965.999C175.029 971.405 173.551 978.326 175.052 984.92L228.377 1219.32C229.755 1225.38 233.527 1230.62 238.833 1233.86L432.966 1352.19C439.418 1356.12 447.389 1356.64 454.292 1353.56L639.383 1271.15C646.285 1268.08 651.238 1261.81 652.633 1254.39L694.595 1030.94C695.742 1024.83 694.369 1018.52 690.788 1013.44L552.276 816.969C548.38 811.441 542.248 807.909 535.512 807.311L325.927 788.709Z" stroke="url(#paint55_linear_358_70)" stroke-width="4"/>
<path opacity="0.826087" d="M319.417 788.501C311.604 787.425 303.785 790.426 298.699 796.454L164.489 955.524C160.117 960.706 158.254 967.554 159.398 974.237L199.194 1206.71C200.251 1212.88 203.78 1218.36 208.965 1221.87L394.238 1347.37C400.465 1351.59 408.359 1352.5 415.38 1349.8L602.968 1277.79C609.989 1275.1 615.249 1269.14 617.054 1261.84L670.761 1044.6C672.265 1038.52 671.223 1032.09 667.878 1026.8L541.898 827.409C538.276 821.677 532.31 817.835 525.593 816.909L319.417 788.501Z" stroke="url(#paint56_linear_358_70)" stroke-width="4"/>
<path opacity="0.84058" d="M312.66 789.232C304.973 787.791 297.081 790.355 291.708 796.039L150.311 945.634C145.641 950.574 143.396 957.327 144.178 964.08L170.798 1193.86C171.525 1200.13 174.798 1205.83 179.85 1209.62L356.049 1341.69C362.037 1346.18 369.835 1347.48 376.952 1345.16L566.464 1283.59C573.581 1281.28 579.128 1275.64 581.334 1268.49L646.249 1058.07C648.111 1052.04 647.41 1045.51 644.311 1040.01L530.786 838.464C527.45 832.541 521.664 828.397 514.983 827.145L312.66 789.232Z" stroke="url(#paint57_linear_358_70)" stroke-width="4"/>
<path opacity="0.855072" d="M305.601 790.873C298.058 789.079 290.119 791.206 284.484 796.531L136.518 936.344C131.564 941.025 128.942 947.662 129.358 954.465L143.196 1180.82C143.585 1187.17 146.59 1193.08 151.496 1197.14L318.444 1335.2C324.182 1339.94 331.862 1341.62 339.054 1339.69L529.92 1288.55C537.113 1286.62 542.927 1281.33 545.524 1274.35L621.076 1071.31C623.296 1065.35 622.944 1058.73 620.103 1053.03L518.911 850.084C515.87 843.985 510.28 839.548 503.649 837.971L305.601 790.873Z" stroke="url(#paint58_linear_358_70)" stroke-width="4"/>
<path opacity="0.869565" d="M298.192 793.394C290.81 791.258 282.849 792.95 276.974 797.904L123.074 927.665C117.849 932.07 114.854 938.57 114.9 945.403L116.393 1167.63C116.436 1174.05 119.161 1180.16 123.909 1184.48L281.465 1327.93C286.943 1332.91 294.486 1334.96 301.731 1333.42L493.387 1292.68C500.633 1291.14 506.693 1286.2 509.668 1279.42L595.26 1084.29C597.839 1078.41 597.843 1071.72 595.271 1065.84L506.247 862.22C503.51 855.958 498.13 851.239 491.566 849.339L298.192 793.394Z" stroke="url(#paint59_linear_358_70)" stroke-width="4"/>
<path opacity="0.884058" d="M290.383 796.762C283.179 794.297 275.221 795.557 269.131 800.128L109.938 919.607C104.458 923.72 101.097 930.062 100.77 936.906L90.3909 1154.34C90.082 1160.81 92.5149 1167.11 97.0918 1171.69L245.153 1319.93C250.36 1325.14 257.748 1327.54 265.024 1326.39L456.913 1296C464.189 1294.85 470.473 1290.28 473.814 1283.71L568.822 1096.98C571.759 1091.21 572.126 1084.46 569.834 1078.41L492.77 874.819C490.345 868.411 485.189 863.418 478.706 861.2L290.383 796.762Z" stroke="url(#paint60_linear_358_70)" stroke-width="4"/>
<path opacity="0.898551" d="M282.129 800.94C275.118 798.158 267.188 798.992 260.908 803.17L97.0712 912.178C91.3516 915.984 87.6326 922.147 86.9318 928.981L65.1893 1141C64.5227 1147.5 66.6523 1153.98 71.0463 1158.82L209.544 1311.25C214.471 1316.67 221.685 1319.42 228.971 1318.66L420.544 1298.52C427.83 1297.76 434.315 1293.57 438.006 1287.24L541.785 1109.34C545.077 1103.7 545.814 1096.92 543.81 1090.7L478.461 887.83C476.354 881.291 471.435 876.035 465.049 873.502L282.129 800.94Z" stroke="url(#paint61_linear_358_70)" stroke-width="4"/>
<path opacity="0.913043" d="M273.387 805.89C266.583 802.806 258.705 803.219 252.261 806.997L84.4352 905.383C78.4928 908.867 74.4246 914.83 73.3492 921.634L40.7847 1127.66C39.7553 1134.17 41.5707 1140.81 45.77 1145.9L174.671 1301.95C179.31 1307.56 186.334 1310.65 193.607 1310.27L384.325 1300.27C391.599 1299.89 398.262 1296.09 402.288 1290.02L514.171 1121.35C517.816 1115.85 518.927 1109.06 517.223 1102.69L463.301 901.197C461.52 894.543 456.851 889.038 450.577 886.194L273.387 805.89Z" stroke="url(#paint62_linear_358_70)" stroke-width="4"/>
<path opacity="0.927536" d="M264.116 811.571C257.534 808.199 249.731 808.199 243.148 811.571L71.9911 899.223C65.8438 902.372 61.4365 908.116 59.9872 914.869L17.1717 1114.35C15.775 1120.86 17.2658 1127.65 21.2588 1132.98L140.564 1292.07C144.907 1297.86 151.725 1301.27 158.965 1301.27L348.3 1301.27C355.54 1301.27 362.357 1297.86 366.701 1292.07L486.006 1132.98C489.999 1127.65 491.49 1120.86 490.093 1114.35L447.278 914.869C445.828 908.116 441.421 902.372 435.274 899.223L264.116 811.571L265.028 809.79L264.116 811.571Z" stroke="url(#paint63_linear_358_70)" stroke-width="4"/>
<path opacity="0.942029" d="M254.28 817.939C247.932 814.296 240.228 813.892 233.533 816.852L59.7008 893.7C53.367 896.5 48.632 902.005 46.8105 908.686L-5.65796 1101.13C-7.42549 1107.61 -6.26956 1114.54 -2.49399 1120.1L107.249 1281.67C111.292 1287.62 117.886 1291.34 125.071 1291.72L312.511 1301.54C319.696 1301.92 326.643 1298.91 331.286 1293.41L457.316 1144.2C461.652 1139.07 463.526 1132.29 462.446 1125.66L430.381 928.788C429.268 921.953 425.134 915.983 419.128 912.537L254.28 817.939Z" stroke="url(#paint64_linear_358_70)" stroke-width="4"/>
<path opacity="0.956522" d="M243.844 824.951C237.741 821.052 230.158 820.255 223.378 822.8L47.5261 888.811C41.0254 891.251 35.975 896.497 33.784 903.086L-27.7155 1088.04C-29.8566 1094.47 -29.0451 1101.53 -25.498 1107.32L74.7491 1270.8C78.4858 1276.9 84.8433 1280.91 91.9525 1281.66L276.997 1301.11C284.106 1301.85 291.158 1299.25 296.08 1294.07L428.128 1154.99C432.8 1150.07 435.061 1143.34 434.306 1136.6L412.603 942.902C411.83 936.001 407.981 929.819 402.129 926.081L243.844 824.951Z" stroke="url(#paint65_linear_358_70)" stroke-width="4"/>
<path opacity="0.971014" d="M232.778 832.56C226.931 828.421 219.491 827.243 212.651 829.372L35.4299 884.551C28.7825 886.621 23.4303 891.591 20.8739 898.067L-49.0138 1075.11C-51.5305 1081.49 -51.0725 1088.65 -47.7645 1094.66L43.0837 1259.53C46.5104 1265.75 52.6171 1270.03 59.63 1271.14L241.794 1300C248.807 1301.11 255.94 1298.92 261.121 1294.06L398.471 1165.33C403.472 1160.65 406.122 1153.97 405.698 1147.13L393.941 957.155C393.511 950.206 389.956 943.826 384.274 939.803L232.778 832.56Z" stroke="url(#paint66_linear_358_70)" stroke-width="4"/>
<path opacity="0.985507" d="M221.053 840.718C215.472 836.357 208.194 834.81 201.323 836.524L23.3761 880.916C16.6028 882.606 10.9635 887.281 8.04691 893.623L-69.5682 1062.4C-72.4618 1068.69 -72.366 1075.95 -69.3075 1082.17L12.2685 1247.9C15.3822 1254.22 21.2255 1258.77 28.1221 1260.24L206.94 1298.25C213.836 1299.71 221.024 1297.93 226.442 1293.42L368.373 1175.2C373.694 1170.77 376.735 1164.17 376.651 1157.25L374.395 971.493C374.31 964.512 371.059 957.948 365.559 953.65L221.053 840.718Z" stroke="url(#paint67_linear_358_70)" stroke-width="4"/>
<path d="M208.644 849.376C203.339 844.81 196.243 842.909 189.366 844.21L11.329 877.896C4.45151 879.198 -1.45912 883.56 -4.72975 889.748L-89.3969 1049.95C-92.6675 1056.13 -92.9422 1063.48 -90.1432 1069.89L-17.6844 1235.97C-14.8854 1242.38 -9.31729 1247.18 -2.55631 1248.99L172.465 1295.88C179.226 1297.7 186.444 1296.33 192.076 1292.17L337.866 1184.58C343.498 1180.42 346.93 1173.92 347.192 1166.93L353.967 985.861C354.229 978.866 351.291 972.133 345.986 967.567L208.644 849.376Z" stroke="url(#paint68_linear_358_70)" stroke-width="4"/>
<defs>
<linearGradient id="paint0_linear_358_70" x1="1783.01" y1="1627.27" x2="1590.96" y2="414.718" gradientUnits="userSpaceOnUse">
<stop stop-color="#FF1CF7"/>
<stop offset="1" stop-color="#00F0FF"/>
</linearGradient>
<linearGradient id="paint1_linear_358_70" x1="1728.95" y1="1626.5" x2="1601.76" y2="416.331" gradientUnits="userSpaceOnUse">
<stop stop-color="#FF1CF7"/>
<stop offset="1" stop-color="#00F0FF"/>
</linearGradient>
<linearGradient id="paint2_linear_358_70" x1="1675.26" y1="1624.07" x2="1612.15" y2="419.723" gradientUnits="userSpaceOnUse">
<stop stop-color="#FF1CF7"/>
<stop offset="1" stop-color="#00F0FF"/>
</linearGradient>
<linearGradient id="paint3_linear_358_70" x1="1622.04" y1="1620.02" x2="1622.04" y2="424.857" gradientUnits="userSpaceOnUse">
<stop stop-color="#FF1CF7"/>
<stop offset="1" stop-color="#00F0FF"/>
</linearGradient>
<linearGradient id="paint4_linear_358_70" x1="1569.36" y1="1614.39" x2="1631.34" y2="431.688" gradientUnits="userSpaceOnUse">
<stop stop-color="#FF1CF7"/>
<stop offset="1" stop-color="#00F0FF"/>
</linearGradient>
<linearGradient id="paint5_linear_358_70" x1="1517.31" y1="1607.23" x2="1639.97" y2="440.167" gradientUnits="userSpaceOnUse">
<stop stop-color="#FF1CF7"/>
<stop offset="1" stop-color="#00F0FF"/>
</linearGradient>
<linearGradient id="paint6_linear_358_70" x1="1465.96" y1="1598.58" x2="1647.84" y2="450.243" gradientUnits="userSpaceOnUse">
<stop stop-color="#FF1CF7"/>
<stop offset="1" stop-color="#00F0FF"/>
</linearGradient>
<linearGradient id="paint7_linear_358_70" x1="1415.4" y1="1588.51" x2="1654.88" y2="461.857" gradientUnits="userSpaceOnUse">
<stop stop-color="#FF1CF7"/>
<stop offset="1" stop-color="#00F0FF"/>
</linearGradient>
<linearGradient id="paint8_linear_358_70" x1="1365.69" y1="1577.06" x2="1661" y2="474.949" gradientUnits="userSpaceOnUse">
<stop stop-color="#FF1CF7"/>
<stop offset="1" stop-color="#00F0FF"/>
</linearGradient>
<linearGradient id="paint9_linear_358_70" x1="1316.89" y1="1564.29" x2="1666.13" y2="489.453" gradientUnits="userSpaceOnUse">
<stop stop-color="#FF1CF7"/>
<stop offset="1" stop-color="#00F0FF"/>
</linearGradient>
<linearGradient id="paint10_linear_358_70" x1="1269.08" y1="1550.27" x2="1670.2" y2="505.303" gradientUnits="userSpaceOnUse">
<stop stop-color="#FF1CF7"/>
<stop offset="1" stop-color="#00F0FF"/>
</linearGradient>
<linearGradient id="paint11_linear_358_70" x1="1222.3" y1="1535.07" x2="1673.16" y2="522.425" gradientUnits="userSpaceOnUse">
<stop stop-color="#FF1CF7"/>
<stop offset="1" stop-color="#00F0FF"/>
</linearGradient>
<linearGradient id="paint12_linear_358_70" x1="1176.62" y1="1518.75" x2="1674.94" y2="540.747" gradientUnits="userSpaceOnUse">
<stop stop-color="#FF1CF7"/>
<stop offset="1" stop-color="#00F0FF"/>
</linearGradient>
<linearGradient id="paint13_linear_358_70" x1="1132.09" y1="1501.39" x2="1675.49" y2="560.19" gradientUnits="userSpaceOnUse">
<stop stop-color="#FF1CF7"/>
<stop offset="1" stop-color="#00F0FF"/>
</linearGradient>
<linearGradient id="paint14_linear_358_70" x1="1088.75" y1="1483.06" x2="1674.76" y2="580.677" gradientUnits="userSpaceOnUse">
<stop stop-color="#FF1CF7"/>
<stop offset="1" stop-color="#00F0FF"/>
</linearGradient>
<linearGradient id="paint15_linear_358_70" x1="1046.64" y1="1463.84" x2="1672.71" y2="602.124" gradientUnits="userSpaceOnUse">
<stop stop-color="#FF1CF7"/>
<stop offset="1" stop-color="#00F0FF"/>
</linearGradient>
<linearGradient id="paint16_linear_358_70" x1="1005.79" y1="1443.8" x2="1669.29" y2="624.45" gradientUnits="userSpaceOnUse">
<stop stop-color="#FF1CF7"/>
<stop offset="1" stop-color="#00F0FF"/>
</linearGradient>
<linearGradient id="paint17_linear_358_70" x1="966.254" y1="1423.02" x2="1664.47" y2="647.57" gradientUnits="userSpaceOnUse">
<stop stop-color="#FF1CF7"/>
<stop offset="1" stop-color="#00F0FF"/>
</linearGradient>
<linearGradient id="paint18_linear_358_70" x1="928.043" y1="1401.58" x2="1658.22" y2="671.397" gradientUnits="userSpaceOnUse">
<stop stop-color="#FF1CF7"/>
<stop offset="1" stop-color="#00F0FF"/>
</linearGradient>
<linearGradient id="paint19_linear_358_70" x1="891.182" y1="1379.56" x2="1650.52" y2="695.846" gradientUnits="userSpaceOnUse">
<stop stop-color="#FF1CF7"/>
<stop offset="1" stop-color="#00F0FF"/>
</linearGradient>
<linearGradient id="paint20_linear_358_70" x1="855.691" y1="1357.05" x2="1641.35" y2="720.83" gradientUnits="userSpaceOnUse">
<stop stop-color="#FF1CF7"/>
<stop offset="1" stop-color="#00F0FF"/>
</linearGradient>
<linearGradient id="paint21_linear_358_70" x1="821.581" y1="1334.12" x2="1630.7" y2="746.26" gradientUnits="userSpaceOnUse">
<stop stop-color="#FF1CF7"/>
<stop offset="1" stop-color="#00F0FF"/>
</linearGradient>
<linearGradient id="paint22_linear_358_70" x1="788.861" y1="1310.85" x2="1618.55" y2="772.049" gradientUnits="userSpaceOnUse">
<stop stop-color="#FF1CF7"/>
<stop offset="1" stop-color="#00F0FF"/>
</linearGradient>
<linearGradient id="paint23_linear_358_70" x1="757.535" y1="1287.34" x2="1604.9" y2="798.111" gradientUnits="userSpaceOnUse">
<stop stop-color="#FF1CF7"/>
<stop offset="1" stop-color="#00F0FF"/>
</linearGradient>
<linearGradient id="paint24_linear_358_70" x1="727.601" y1="1263.65" x2="1589.75" y2="824.358" gradientUnits="userSpaceOnUse">
<stop stop-color="#FF1CF7"/>
<stop offset="1" stop-color="#00F0FF"/>
</linearGradient>
<linearGradient id="paint25_linear_358_70" x1="699.054" y1="1239.86" x2="1573.12" y2="850.706" gradientUnits="userSpaceOnUse">
<stop stop-color="#FF1CF7"/>
<stop offset="1" stop-color="#00F0FF"/>
</linearGradient>
<linearGradient id="paint26_linear_358_70" x1="671.884" y1="1216.07" x2="1555" y2="877.069" gradientUnits="userSpaceOnUse">
<stop stop-color="#FF1CF7"/>
<stop offset="1" stop-color="#00F0FF"/>
</linearGradient>
<linearGradient id="paint27_linear_358_70" x1="646.077" y1="1192.33" x2="1535.42" y2="903.366" gradientUnits="userSpaceOnUse">
<stop stop-color="#FF1CF7"/>
<stop offset="1" stop-color="#00F0FF"/>
</linearGradient>
<linearGradient id="paint28_linear_358_70" x1="621.613" y1="1168.73" x2="1514.39" y2="929.514" gradientUnits="userSpaceOnUse">
<stop stop-color="#FF1CF7"/>
<stop offset="1" stop-color="#00F0FF"/>
</linearGradient>
<linearGradient id="paint29_linear_358_70" x1="598.471" y1="1145.35" x2="1491.95" y2="955.433" gradientUnits="userSpaceOnUse">
<stop stop-color="#FF1CF7"/>
<stop offset="1" stop-color="#00F0FF"/>
</linearGradient>
<linearGradient id="paint30_linear_358_70" x1="576.622" y1="1122.25" x2="1468.11" y2="981.049" gradientUnits="userSpaceOnUse">
<stop stop-color="#FF1CF7"/>
<stop offset="1" stop-color="#00F0FF"/>
</linearGradient>
<linearGradient id="paint31_linear_358_70" x1="556.036" y1="1099.5" x2="1442.92" y2="1006.28" gradientUnits="userSpaceOnUse">
<stop stop-color="#FF1CF7"/>
<stop offset="1" stop-color="#00F0FF"/>
</linearGradient>
<linearGradient id="paint32_linear_358_70" x1="536.678" y1="1077.17" x2="1416.4" y2="1031.07" gradientUnits="userSpaceOnUse">
<stop stop-color="#FF1CF7"/>
<stop offset="1" stop-color="#00F0FF"/>
</linearGradient>
<linearGradient id="paint33_linear_358_70" x1="518.512" y1="1055.33" x2="1388.61" y2="1055.33" gradientUnits="userSpaceOnUse">
<stop stop-color="#FF1CF7"/>
<stop offset="1" stop-color="#00F0FF"/>
</linearGradient>
<linearGradient id="paint34_linear_358_70" x1="501.494" y1="1034.03" x2="1359.58" y2="1079" gradientUnits="userSpaceOnUse">
<stop stop-color="#FF1CF7"/>
<stop offset="1" stop-color="#00F0FF"/>
</linearGradient>
<linearGradient id="paint35_linear_358_70" x1="485.582" y1="1013.34" x2="1329.36" y2="1102.03" gradientUnits="userSpaceOnUse">
<stop stop-color="#FF1CF7"/>
<stop offset="1" stop-color="#00F0FF"/>
</linearGradient>
<linearGradient id="paint36_linear_358_70" x1="470.727" y1="993.311" x2="1298" y2="1124.34" gradientUnits="userSpaceOnUse">
<stop stop-color="#FF1CF7"/>
<stop offset="1" stop-color="#00F0FF"/>
</linearGradient>
<linearGradient id="paint37_linear_358_70" x1="456.879" y1="973.995" x2="1265.57" y2="1145.89" gradientUnits="userSpaceOnUse">
<stop stop-color="#FF1CF7"/>
<stop offset="1" stop-color="#00F0FF"/>
</linearGradient>
<linearGradient id="paint38_linear_358_70" x1="443.986" y1="955.439" x2="1232.1" y2="1166.61" gradientUnits="userSpaceOnUse">
<stop stop-color="#FF1CF7"/>
<stop offset="1" stop-color="#00F0FF"/>
</linearGradient>
<linearGradient id="paint39_linear_358_70" x1="431.993" y1="937.69" x2="1197.67" y2="1186.47" gradientUnits="userSpaceOnUse">
<stop stop-color="#FF1CF7"/>
<stop offset="1" stop-color="#00F0FF"/>
</linearGradient>
<linearGradient id="paint40_linear_358_70" x1="420.842" y1="920.79" x2="1162.34" y2="1205.42" gradientUnits="userSpaceOnUse">
<stop stop-color="#FF1CF7"/>
<stop offset="1" stop-color="#00F0FF"/>
</linearGradient>
<linearGradient id="paint41_linear_358_70" x1="410.474" y1="904.777" x2="1126.16" y2="1223.42" gradientUnits="userSpaceOnUse">
<stop stop-color="#FF1CF7"/>
<stop offset="1" stop-color="#00F0FF"/>
</linearGradient>
<linearGradient id="paint42_linear_358_70" x1="400.83" y1="889.683" x2="1089.2" y2="1240.43" gradientUnits="userSpaceOnUse">
<stop stop-color="#FF1CF7"/>
<stop offset="1" stop-color="#00F0FF"/>
</linearGradient>
<linearGradient id="paint43_linear_358_70" x1="391.846" y1="875.54" x2="1051.53" y2="1256.41" gradientUnits="userSpaceOnUse">
<stop stop-color="#FF1CF7"/>
<stop offset="1" stop-color="#00F0FF"/>
</linearGradient>
<linearGradient id="paint44_linear_358_70" x1="383.461" y1="862.373" x2="1013.22" y2="1271.35" gradientUnits="userSpaceOnUse">
<stop stop-color="#FF1CF7"/>
<stop offset="1" stop-color="#00F0FF"/>
</linearGradient>
<linearGradient id="paint45_linear_358_70" x1="375.61" y1="850.205" x2="974.339" y2="1285.21" gradientUnits="userSpaceOnUse">
<stop stop-color="#FF1CF7"/>
<stop offset="1" stop-color="#00F0FF"/>
</linearGradient>
<linearGradient id="paint46_linear_358_70" x1="368.229" y1="839.054" x2="934.95" y2="1297.98" gradientUnits="userSpaceOnUse">
<stop stop-color="#FF1CF7"/>
<stop offset="1" stop-color="#00F0FF"/>
</linearGradient>
<linearGradient id="paint47_linear_358_70" x1="361.252" y1="828.934" x2="895.126" y2="1309.64" gradientUnits="userSpaceOnUse">
<stop stop-color="#FF1CF7"/>
<stop offset="1" stop-color="#00F0FF"/>
</linearGradient>
<linearGradient id="paint48_linear_358_70" x1="354.615" y1="819.855" x2="854.937" y2="1320.18" gradientUnits="userSpaceOnUse">
<stop stop-color="#FF1CF7"/>
<stop offset="1" stop-color="#00F0FF"/>
</linearGradient>
<linearGradient id="paint49_linear_358_70" x1="348.252" y1="811.823" x2="814.453" y2="1329.59" gradientUnits="userSpaceOnUse">
<stop stop-color="#FF1CF7"/>
<stop offset="1" stop-color="#00F0FF"/>
</linearGradient>
<linearGradient id="paint50_linear_358_70" x1="342.098" y1="804.841" x2="773.744" y2="1337.88" gradientUnits="userSpaceOnUse">
<stop stop-color="#FF1CF7"/>
<stop offset="1" stop-color="#00F0FF"/>
</linearGradient>
<linearGradient id="paint51_linear_358_70" x1="336.09" y1="798.907" x2="732.878" y2="1345.04" gradientUnits="userSpaceOnUse">
<stop stop-color="#FF1CF7"/>
<stop offset="1" stop-color="#00F0FF"/>
</linearGradient>
<linearGradient id="paint52_linear_358_70" x1="330.164" y1="794.015" x2="691.925" y2="1351.08" gradientUnits="userSpaceOnUse">
<stop stop-color="#FF1CF7"/>
<stop offset="1" stop-color="#00F0FF"/>
</linearGradient>
<linearGradient id="paint53_linear_358_70" x1="324.258" y1="790.158" x2="650.95" y2="1356.01" gradientUnits="userSpaceOnUse">
<stop stop-color="#FF1CF7"/>
<stop offset="1" stop-color="#00F0FF"/>
</linearGradient>
<linearGradient id="paint54_linear_358_70" x1="318.309" y1="787.321" x2="610.021" y2="1359.84" gradientUnits="userSpaceOnUse">
<stop stop-color="#FF1CF7"/>
<stop offset="1" stop-color="#00F0FF"/>
</linearGradient>
<linearGradient id="paint55_linear_358_70" x1="312.26" y1="785.488" x2="569.201" y2="1362.59" gradientUnits="userSpaceOnUse">
<stop stop-color="#FF1CF7"/>
<stop offset="1" stop-color="#00F0FF"/>
</linearGradient>
<linearGradient id="paint56_linear_358_70" x1="306.049" y1="784.64" x2="528.552" y2="1364.28" gradientUnits="userSpaceOnUse">
<stop stop-color="#FF1CF7"/>
<stop offset="1" stop-color="#00F0FF"/>
</linearGradient>
<linearGradient id="paint57_linear_358_70" x1="299.623" y1="784.754" x2="488.137" y2="1364.94" gradientUnits="userSpaceOnUse">
<stop stop-color="#FF1CF7"/>
<stop offset="1" stop-color="#00F0FF"/>
</linearGradient>
<linearGradient id="paint58_linear_358_70" x1="292.926" y1="785.803" x2="448.012" y2="1364.59" gradientUnits="userSpaceOnUse">
<stop stop-color="#FF1CF7"/>
<stop offset="1" stop-color="#00F0FF"/>
</linearGradient>
<linearGradient id="paint59_linear_358_70" x1="285.906" y1="787.757" x2="408.235" y2="1363.27" gradientUnits="userSpaceOnUse">
<stop stop-color="#FF1CF7"/>
<stop offset="1" stop-color="#00F0FF"/>
</linearGradient>
<linearGradient id="paint60_linear_358_70" x1="278.512" y1="790.586" x2="368.859" y2="1361.01" gradientUnits="userSpaceOnUse">
<stop stop-color="#FF1CF7"/>
<stop offset="1" stop-color="#00F0FF"/>
</linearGradient>
<linearGradient id="paint61_linear_358_70" x1="270.698" y1="794.254" x2="329.935" y2="1357.85" gradientUnits="userSpaceOnUse">
<stop stop-color="#FF1CF7"/>
<stop offset="1" stop-color="#00F0FF"/>
</linearGradient>
<linearGradient id="paint62_linear_358_70" x1="262.419" y1="798.723" x2="291.511" y2="1353.83" gradientUnits="userSpaceOnUse">
<stop stop-color="#FF1CF7"/>
<stop offset="1" stop-color="#00F0FF"/>
</linearGradient>
<linearGradient id="paint63_linear_358_70" x1="253.632" y1="803.955" x2="253.632" y2="1348.98" gradientUnits="userSpaceOnUse">
<stop stop-color="#FF1CF7"/>
<stop offset="1" stop-color="#00F0FF"/>
</linearGradient>
<linearGradient id="paint64_linear_358_70" x1="244.299" y1="809.906" x2="216.342" y2="1343.37" gradientUnits="userSpaceOnUse">
<stop stop-color="#FF1CF7"/>
<stop offset="1" stop-color="#00F0FF"/>
</linearGradient>
<linearGradient id="paint65_linear_358_70" x1="234.383" y1="816.533" x2="179.677" y2="1337.02" gradientUnits="userSpaceOnUse">
<stop stop-color="#FF1CF7"/>
<stop offset="1" stop-color="#00F0FF"/>
</linearGradient>
<linearGradient id="paint66_linear_358_70" x1="223.851" y1="823.79" x2="143.675" y2="1330" gradientUnits="userSpaceOnUse">
<stop stop-color="#FF1CF7"/>
<stop offset="1" stop-color="#00F0FF"/>
</linearGradient>
<linearGradient id="paint67_linear_358_70" x1="212.673" y1="831.631" x2="108.367" y2="1322.35" gradientUnits="userSpaceOnUse">
<stop stop-color="#FF1CF7"/>
<stop offset="1" stop-color="#00F0FF"/>
</linearGradient>
<linearGradient id="paint68_linear_358_70" x1="200.824" y1="840.006" x2="73.7819" y2="1314.13" gradientUnits="userSpaceOnUse">
<stop stop-color="#FF1CF7"/>
<stop offset="1" stop-color="#00F0FF"/>
</linearGradient>
</defs>
</svg>
