<svg width="483" height="96" viewBox="0 0 483 96" fill="none" xmlns="http://www.w3.org/2000/svg">
<g filter="url(#filter0_dd_226_132)">
<path d="M88.572 41.724C88.572 29.506 78.65 21.142 61.676 21.142H27.236L16.002 35.41H63.234C68.482 35.41 71.516 37.788 71.516 41.642C71.516 45.414 68.482 47.956 63.234 47.956H16.002V76H32.894V61.978H61.594C78.65 61.978 88.572 53.86 88.572 41.724ZM164.937 65.34C161.165 61.486 159.115 59.518 157.229 58.124C166.249 56.32 171.579 49.268 171.579 40.74C171.579 25.078 155.835 21.142 143.371 21.142H108.111L97.0411 35.41H144.765C150.587 35.41 154.113 37.542 154.113 41.806C154.113 45.578 150.013 47.956 144.765 47.956H97.0411V76H114.015V61.486H140.091L152.309 76H175.023L164.937 65.34ZM268.129 76L233.853 26.39C231.475 22.946 228.113 20.24 223.029 20.24C217.699 20.24 214.337 23.192 212.041 26.39L176.863 76H196.953L222.701 39.592L232.541 54.106C234.345 56.73 236.641 60.092 238.117 62.06C235.493 61.896 231.639 61.896 228.359 61.896H214.583L204.333 76H268.129ZM330.102 21.142L312.472 38.198L295.006 21.142H271.472L288.282 36.886C296.892 44.922 299.024 46.808 301.074 48.284C299.024 49.842 296.646 51.81 288.282 59.518L270.406 76H291.48L310.75 57.878L329.446 76H353.39L335.842 59.518C326.986 51.236 324.526 48.94 322.558 47.628C324.608 46.07 327.15 43.856 334.776 36.968L352.078 21.142H330.102ZM376.681 21.142H359.707V76H376.681V21.142ZM408.24 43.036C404.304 43.036 402.418 41.97 402.418 39.182C402.418 36.394 404.304 35.41 408.24 35.41H446.288L457.194 21.142H409.552C392.906 21.142 386.018 27.866 386.018 38.198C386.018 47.628 392.496 53.942 406.6 53.942H436.448C440.466 53.942 442.27 55.09 442.27 57.878C442.27 60.748 440.466 61.896 436.448 61.896H394.956L384.05 76H435.136C451.864 76 458.67 69.276 458.67 58.042C458.67 48.038 451.454 43.036 438.088 43.036H408.24Z" fill="white"/>
<path d="M27.236 21.142V20.142H26.7506L26.4503 20.5234L27.236 21.142ZM16.002 35.41L15.2163 34.7914L13.9419 36.41H16.002V35.41ZM16.002 47.956V46.956H15.002V47.956H16.002ZM16.002 76H15.002V77H16.002V76ZM32.894 76V77H33.894V76H32.894ZM32.894 61.978V60.978H31.894V61.978H32.894ZM89.572 41.724C89.572 35.3181 86.9583 29.879 82.1073 26.0651C77.28 22.2699 70.316 20.142 61.676 20.142V22.142C70.01 22.142 76.494 24.1961 80.8712 27.6374C85.2247 31.06 87.572 35.9119 87.572 41.724H89.572ZM61.676 20.142H27.236V22.142H61.676V20.142ZM26.4503 20.5234L15.2163 34.7914L16.7877 36.0286L28.0217 21.7606L26.4503 20.5234ZM16.002 36.41H63.234V34.41H16.002V36.41ZM63.234 36.41C65.723 36.41 67.5536 36.9758 68.7375 37.8766C69.8877 38.7518 70.516 40.0071 70.516 41.642H72.516C72.516 39.4229 71.6273 37.5622 69.9485 36.2849C68.3034 35.0332 65.993 34.41 63.234 34.41V36.41ZM70.516 41.642C70.516 43.2333 69.8891 44.5163 68.7267 45.426C67.5388 46.3557 65.7087 46.956 63.234 46.956V48.956C66.0073 48.956 68.3183 48.2853 69.9593 47.001C71.6259 45.6967 72.516 43.8227 72.516 41.642H70.516ZM63.234 46.956H16.002V48.956H63.234V46.956ZM15.002 47.956V76H17.002V47.956H15.002ZM16.002 77H32.894V75H16.002V77ZM33.894 76V61.978H31.894V76H33.894ZM32.894 62.978H61.594V60.978H32.894V62.978ZM61.594 62.978C70.2677 62.978 77.25 60.9151 82.0885 57.1948C86.9544 53.4534 89.572 48.0934 89.572 41.724H87.572C87.572 47.4906 85.2286 52.2575 80.8695 55.6092C76.483 58.9819 69.9764 60.978 61.594 60.978V62.978ZM164.937 65.34L165.663 64.6527L165.658 64.6466L165.652 64.6405L164.937 65.34ZM157.229 58.124L157.033 57.1434L154.819 57.5862L156.635 58.9282L157.229 58.124ZM108.111 21.142V20.142H107.621L107.321 20.529L108.111 21.142ZM97.0411 35.41L96.251 34.797L94.9995 36.41H97.0411V35.41ZM97.0411 47.956V46.956H96.0411V47.956H97.0411ZM97.0411 76H96.0411V77H97.0411V76ZM114.015 76V77H115.015V76H114.015ZM114.015 61.486V60.486H113.015V61.486H114.015ZM140.091 61.486L140.856 60.842L140.556 60.486H140.091V61.486ZM152.309 76L151.544 76.644L151.844 77H152.309V76ZM175.023 76V77H177.346L175.749 75.3127L175.023 76ZM165.652 64.6405C161.888 60.7945 159.784 58.7688 157.823 57.3198L156.635 58.9282C158.446 60.2672 160.443 62.1775 164.222 66.0395L165.652 64.6405ZM157.425 59.1046C166.927 57.2042 172.579 49.7296 172.579 40.74H170.579C170.579 48.8064 165.571 55.4358 157.033 57.1434L157.425 59.1046ZM172.579 40.74C172.579 32.4852 168.389 27.2743 162.621 24.1862C156.92 21.1334 149.679 20.142 143.371 20.142V22.142C149.527 22.142 156.39 23.1186 161.677 25.9493C166.898 28.7447 170.579 33.3328 170.579 40.74H172.579ZM143.371 20.142H108.111V22.142H143.371V20.142ZM107.321 20.529L96.251 34.797L97.8311 36.023L108.901 21.755L107.321 20.529ZM97.0411 36.41H144.765V34.41H97.0411V36.41ZM144.765 36.41C147.579 36.41 149.692 36.9295 151.07 37.8427C152.39 38.7171 153.113 39.9977 153.113 41.806H155.113C155.113 39.3503 154.073 37.4329 152.175 36.1753C150.335 34.9565 147.773 34.41 144.765 34.41V36.41ZM153.113 41.806C153.113 43.2749 152.333 44.5245 150.872 45.451C149.391 46.39 147.253 46.956 144.765 46.956V48.956C147.525 48.956 150.061 48.333 151.943 47.14C153.844 45.9345 155.113 44.1091 155.113 41.806H153.113ZM144.765 46.956H97.0411V48.956H144.765V46.956ZM96.0411 47.956V76H98.0411V47.956H96.0411ZM97.0411 77H114.015V75H97.0411V77ZM115.015 76V61.486H113.015V76H115.015ZM114.015 62.486H140.091V60.486H114.015V62.486ZM139.326 62.13L151.544 76.644L153.074 75.356L140.856 60.842L139.326 62.13ZM152.309 77H175.023V75H152.309V77ZM175.749 75.3127L165.663 64.6527L164.211 66.0273L174.297 76.6873L175.749 75.3127ZM268.129 76V77H270.035L268.952 75.4316L268.129 76ZM233.853 26.39L233.03 26.9582L233.03 26.9584L233.853 26.39ZM212.041 26.39L211.229 25.8068L211.225 25.8116L212.041 26.39ZM176.863 76L176.047 75.4216L174.928 77H176.863V76ZM196.953 76V77H197.471L197.769 76.5774L196.953 76ZM222.701 39.592L223.529 39.0308L222.718 37.8356L221.884 39.0146L222.701 39.592ZM232.541 54.106L231.713 54.6672L231.717 54.6725L232.541 54.106ZM238.117 62.06L238.055 63.0581L240.217 63.1932L238.917 61.46L238.117 62.06ZM214.583 61.896V60.896H214.074L213.774 61.3081L214.583 61.896ZM204.333 76L203.524 75.4121L202.37 77H204.333V76ZM268.952 75.4316L234.676 25.8216L233.03 26.9584L267.306 76.5684L268.952 75.4316ZM234.676 25.8218C232.18 22.2067 228.546 19.24 223.029 19.24V21.24C227.68 21.24 230.77 23.6853 233.03 26.9582L234.676 25.8218ZM223.029 19.24C217.253 19.24 213.626 22.4678 211.229 25.8068L212.853 26.9732C215.048 23.9161 218.145 21.24 223.029 21.24V19.24ZM211.225 25.8116L176.047 75.4216L177.679 76.5784L212.857 26.9684L211.225 25.8116ZM176.863 77H196.953V75H176.863V77ZM197.769 76.5774L223.517 40.1694L221.884 39.0146L196.136 75.4226L197.769 76.5774ZM221.873 40.1532L231.713 54.6672L233.369 53.5448L223.529 39.0308L221.873 40.1532ZM231.717 54.6725C233.513 57.2852 235.825 60.6708 237.317 62.66L238.917 61.46C237.457 59.5132 235.177 56.1748 233.365 53.5395L231.717 54.6725ZM238.179 61.0619C235.517 60.8955 231.626 60.896 228.359 60.896V62.896C231.652 62.896 235.469 62.8965 238.055 63.0581L238.179 61.0619ZM228.359 60.896H214.583V62.896H228.359V60.896ZM213.774 61.3081L203.524 75.4121L205.142 76.5879L215.392 62.4839L213.774 61.3081ZM204.333 77H268.129V75H204.333V77ZM330.102 21.142V20.142H329.697L329.406 20.4233L330.102 21.142ZM312.472 38.198L311.773 38.9135L312.468 39.5925L313.167 38.9167L312.472 38.198ZM295.006 21.142L295.704 20.4265L295.413 20.142H295.006V21.142ZM271.472 21.142V20.142H268.941L270.788 21.8719L271.472 21.142ZM288.282 36.886L287.598 37.6159L287.599 37.6171L288.282 36.886ZM301.074 48.284L301.679 49.0802L302.755 48.2623L301.658 47.4725L301.074 48.284ZM288.282 59.518L287.604 58.7826L287.604 58.7828L288.282 59.518ZM270.406 76L269.728 75.2648L267.846 77H270.406V76ZM291.48 76V77H291.876L292.165 76.7285L291.48 76ZM310.75 57.878L311.446 57.16L310.76 56.4954L310.065 57.1495L310.75 57.878ZM329.446 76L328.75 76.718L329.041 77H329.446V76ZM353.39 76V77H355.915L354.074 75.2711L353.39 76ZM335.842 59.518L336.526 58.7891L336.525 58.7876L335.842 59.518ZM322.558 47.628L321.953 46.8318L320.835 47.6813L322.003 48.46L322.558 47.628ZM334.776 36.968L335.446 37.7101L335.451 37.7059L334.776 36.968ZM352.078 21.142L352.753 21.8799L354.653 20.142H352.078V21.142ZM329.406 20.4233L311.776 37.4793L313.167 38.9167L330.797 21.8607L329.406 20.4233ZM313.17 37.4825L295.704 20.4265L294.307 21.8575L311.773 38.9135L313.17 37.4825ZM295.006 20.142H271.472V22.142H295.006V20.142ZM270.788 21.8719L287.598 37.6159L288.965 36.1561L272.155 20.4121L270.788 21.8719ZM287.599 37.6171C296.189 45.6342 298.375 47.5735 300.489 49.0955L301.658 47.4725C299.672 46.0425 297.594 44.2098 288.964 36.1549L287.599 37.6171ZM300.469 47.4878C298.377 49.0772 295.969 51.0738 287.604 58.7826L288.959 60.2534C297.322 52.5462 299.67 50.6068 301.679 49.0802L300.469 47.4878ZM287.604 58.7828L269.728 75.2648L271.084 76.7352L288.96 60.2532L287.604 58.7828ZM270.406 77H291.48V75H270.406V77ZM292.165 76.7285L311.435 58.6065L310.065 57.1495L290.795 75.2715L292.165 76.7285ZM310.054 58.596L328.75 76.718L330.142 75.282L311.446 57.16L310.054 58.596ZM329.446 77H353.39V75H329.446V77ZM354.074 75.2711L336.526 58.7891L335.157 60.2469L352.705 76.7289L354.074 75.2711ZM336.525 58.7876C327.715 50.5486 325.169 48.1671 323.112 46.7959L322.003 48.46C323.882 49.7129 326.257 51.9234 335.159 60.2484L336.525 58.7876ZM323.163 48.4242C325.254 46.8348 327.831 44.588 335.446 37.7101L334.105 36.2259C326.468 43.124 323.961 45.3052 321.953 46.8318L323.163 48.4242ZM335.451 37.7059L352.753 21.8799L351.403 20.4041L334.101 36.2301L335.451 37.7059ZM352.078 20.142H330.102V22.142H352.078V20.142ZM376.681 21.142H377.681V20.142H376.681V21.142ZM359.707 21.142V20.142H358.707V21.142H359.707ZM359.707 76H358.707V77H359.707V76ZM376.681 76V77H377.681V76H376.681ZM376.681 20.142H359.707V22.142H376.681V20.142ZM358.707 21.142V76H360.707V21.142H358.707ZM359.707 77H376.681V75H359.707V77ZM377.681 76V21.142H375.681V76H377.681ZM446.288 35.41V36.41H446.782L447.083 36.0173L446.288 35.41ZM457.194 21.142L457.989 21.7493L459.217 20.142H457.194V21.142ZM394.956 61.896V60.896H394.465L394.165 61.2843L394.956 61.896ZM384.05 76L383.259 75.3883L382.013 77H384.05V76ZM408.24 42.036C406.319 42.036 405.105 41.7672 404.391 41.3116C403.777 40.9195 403.418 40.3145 403.418 39.182H401.418C401.418 40.8375 402.002 42.1595 403.315 42.9974C404.528 43.7718 406.226 44.036 408.24 44.036V42.036ZM403.418 39.182C403.418 38.0523 403.774 37.4744 404.378 37.1015C405.093 36.6607 406.309 36.41 408.24 36.41V34.41C406.236 34.41 404.54 34.6513 403.328 35.3995C402.005 36.2156 401.418 37.5237 401.418 39.182H403.418ZM408.24 36.41H446.288V34.41H408.24V36.41ZM447.083 36.0173L457.989 21.7493L456.4 20.5347L445.494 34.8027L447.083 36.0173ZM457.194 20.142H409.552V22.142H457.194V20.142ZM409.552 20.142C401.119 20.142 394.978 21.8413 390.927 25.0076C386.833 28.2076 385.018 32.7917 385.018 38.198H387.018C387.018 33.2723 388.647 29.3284 392.159 26.5834C395.713 23.8047 401.339 22.142 409.552 22.142V20.142ZM385.018 38.198C385.018 43.1583 386.733 47.4019 390.388 50.3814C394.013 53.3361 399.416 54.942 406.6 54.942V52.942C399.68 52.942 394.792 51.3909 391.652 48.8311C388.542 46.2961 387.018 42.6677 387.018 38.198H385.018ZM406.6 54.942H436.448V52.942H406.6V54.942ZM436.448 54.942C438.405 54.942 439.612 55.2302 440.311 55.6965C440.918 56.1014 441.27 56.7278 441.27 57.878H443.27C443.27 56.2402 442.72 54.8986 441.42 54.0324C440.214 53.2278 438.509 52.942 436.448 52.942V54.942ZM441.27 57.878C441.27 59.08 440.911 59.7249 440.305 60.1353C439.608 60.6073 438.406 60.896 436.448 60.896V62.896C438.508 62.896 440.217 62.6106 441.427 61.7912C442.727 60.9101 443.27 59.546 443.27 57.878H441.27ZM436.448 60.896H394.956V62.896H436.448V60.896ZM394.165 61.2843L383.259 75.3883L384.841 76.6117L395.747 62.5077L394.165 61.2843ZM384.05 77H435.136V75H384.05V77ZM435.136 77C443.607 77 449.76 75.3019 453.807 72.0095C457.895 68.6841 459.67 63.87 459.67 58.042H457.67C457.67 63.448 456.042 67.6129 452.545 70.458C449.007 73.3361 443.393 75 435.136 75V77ZM459.67 58.042C459.67 52.7685 457.75 48.6923 453.975 45.9759C450.258 43.3001 444.869 42.036 438.088 42.036V44.036C444.673 44.036 449.575 45.2729 452.807 47.5991C455.983 49.8847 457.67 53.3115 457.67 58.042H459.67ZM438.088 42.036H408.24V44.036H438.088V42.036Z" fill="#070707"/>
</g>
<defs>
<filter id="filter0_dd_226_132" x="0.00195312" y="0.23999" width="482.668" height="95.76" filterUnits="userSpaceOnUse" color-interpolation-filters="sRGB">
<feFlood flood-opacity="0" result="BackgroundImageFix"/>
<feColorMatrix in="SourceAlpha" type="matrix" values="0 0 0 0 0 0 0 0 0 0 0 0 0 0 0 0 0 0 127 0" result="hardAlpha"/>
<feOffset dx="4"/>
<feGaussianBlur stdDeviation="10"/>
<feComposite in2="hardAlpha" operator="out"/>
<feColorMatrix type="matrix" values="0 0 0 0 0 0 0 0 0 0.1 0 0 0 0 1 0 0 0 1 0"/>
<feBlend mode="normal" in2="BackgroundImageFix" result="effect1_dropShadow_226_132"/>
<feColorMatrix in="SourceAlpha" type="matrix" values="0 0 0 0 0 0 0 0 0 0 0 0 0 0 0 0 0 0 127 0" result="hardAlpha"/>
<feOffset dx="-4"/>
<feGaussianBlur stdDeviation="2"/>
<feComposite in2="hardAlpha" operator="out"/>
<feColorMatrix type="matrix" values="0 0 0 0 1 0 0 0 0 0 0 0 0 0 0 0 0 0 1 0"/>
<feBlend mode="normal" in2="effect1_dropShadow_226_132" result="effect2_dropShadow_226_132"/>
<feBlend mode="normal" in="SourceGraphic" in2="effect2_dropShadow_226_132" result="shape"/>
</filter>
</defs>
</svg>
