<svg width="440" height="131" viewBox="0 0 440 131" fill="none" xmlns="http://www.w3.org/2000/svg">
<path d="M75.68 42.56C75.68 30.64 66 22.48 49.44 22.48H15.84L4.88 36.4H50.96C56.08 36.4 59.04 38.72 59.04 42.48C59.04 46.16 56.08 48.64 50.96 48.64H4.88V76H21.36V62.32H49.36C66 62.32 75.68 54.4 75.68 42.56ZM150.183 65.6C146.503 61.84 144.503 59.92 142.663 58.56C151.463 56.8 156.663 49.92 156.663 41.6C156.663 26.32 141.303 22.48 129.143 22.48H94.7425L83.9425 36.4H130.503C136.183 36.4 139.623 38.48 139.623 42.64C139.623 46.32 135.623 48.64 130.503 48.64H83.9425V76H100.503V61.84H125.943L137.863 76H160.023L150.183 65.6ZM250.858 76L217.418 27.6C215.098 24.24 211.818 21.6 206.858 21.6C201.658 21.6 198.378 24.48 196.138 27.6L161.818 76H181.418L206.538 40.48L216.138 54.64C217.898 57.2 220.138 60.48 221.578 62.4C219.018 62.24 215.258 62.24 212.058 62.24H198.618L188.618 76H250.858ZM311.319 22.48L294.119 39.12L277.079 22.48H254.119L270.519 37.84C278.919 45.68 280.999 47.52 282.999 48.96C280.999 50.48 278.679 52.4 270.519 59.92L253.079 76H273.639L292.439 58.32L310.679 76H334.039L316.919 59.92C308.279 51.84 305.879 49.6 303.959 48.32C305.959 46.8 308.439 44.64 315.879 37.92L332.759 22.48H311.319ZM356.762 22.48H340.202V76H356.762V22.48ZM387.551 43.84C383.711 43.84 381.871 42.8 381.871 40.08C381.871 37.36 383.711 36.4 387.551 36.4H424.671L435.311 22.48H388.831C372.591 22.48 365.871 29.04 365.871 39.12C365.871 48.32 372.191 54.48 385.951 54.48H415.071C418.991 54.48 420.751 55.6 420.751 58.32C420.751 61.12 418.991 62.24 415.071 62.24H374.591L363.951 76H413.791C430.111 76 436.751 69.44 436.751 58.48C436.751 48.72 429.711 43.84 416.671 43.84H387.551Z" fill="white"/>
<path d="M23.82 119.21C21.84 119.21 20.02 118.75 18.36 117.83C16.72 116.91 15.41 115.63 14.43 113.99C13.47 112.33 12.99 110.47 12.99 108.41C12.99 106.35 13.47 104.5 14.43 102.86C15.41 101.22 16.72 99.94 18.36 99.02C20.02 98.1 21.84 97.64 23.82 97.64C25.8 97.64 27.61 98.1 29.25 99.02C30.91 99.94 32.21 101.22 33.15 102.86C34.11 104.5 34.59 106.35 34.59 108.41C34.59 110.47 34.11 112.33 33.15 113.99C32.19 115.63 30.89 116.91 29.25 117.83C27.61 118.75 25.8 119.21 23.82 119.21ZM23.82 114.53C25.5 114.53 26.84 113.97 27.84 112.85C28.86 111.73 29.37 110.25 29.37 108.41C29.37 106.55 28.86 105.07 27.84 103.97C26.84 102.85 25.5 102.29 23.82 102.29C22.12 102.29 20.76 102.84 19.74 103.94C18.74 105.04 18.24 106.53 18.24 108.41C18.24 110.27 18.74 111.76 19.74 112.88C20.76 113.98 22.12 114.53 23.82 114.53ZM42.574 105.05C43.174 104.13 43.924 103.41 44.824 102.89C45.724 102.35 46.724 102.08 47.824 102.08V107.51H46.414C45.134 107.51 44.174 107.79 43.534 108.35C42.894 108.89 42.574 109.85 42.574 111.23V119H37.444V102.26H42.574V105.05ZM56.636 102.02C57.816 102.02 58.846 102.26 59.726 102.74C60.626 103.22 61.316 103.85 61.796 104.63V102.26H66.926V118.97C66.926 120.51 66.616 121.9 65.996 123.14C65.396 124.4 64.466 125.4 63.206 126.14C61.966 126.88 60.416 127.25 58.556 127.25C56.076 127.25 54.066 126.66 52.526 125.48C50.986 124.32 50.106 122.74 49.886 120.74H54.956C55.116 121.38 55.496 121.88 56.096 122.24C56.696 122.62 57.436 122.81 58.316 122.81C59.376 122.81 60.216 122.5 60.836 121.88C61.476 121.28 61.796 120.31 61.796 118.97V116.6C61.296 117.38 60.606 118.02 59.726 118.52C58.846 119 57.816 119.24 56.636 119.24C55.256 119.24 54.006 118.89 52.886 118.19C51.766 117.47 50.876 116.46 50.216 115.16C49.576 113.84 49.256 112.32 49.256 110.6C49.256 108.88 49.576 107.37 50.216 106.07C50.876 104.77 51.766 103.77 52.886 103.07C54.006 102.37 55.256 102.02 56.636 102.02ZM61.796 110.63C61.796 109.35 61.436 108.34 60.716 107.6C60.016 106.86 59.156 106.49 58.136 106.49C57.116 106.49 56.246 106.86 55.526 107.6C54.826 108.32 54.476 109.32 54.476 110.6C54.476 111.88 54.826 112.9 55.526 113.66C56.246 114.4 57.116 114.77 58.136 114.77C59.156 114.77 60.016 114.4 60.716 113.66C61.436 112.92 61.796 111.91 61.796 110.63ZM69.6173 110.6C69.6173 108.88 69.9373 107.37 70.5773 106.07C71.2373 104.77 72.1273 103.77 73.2473 103.07C74.3673 102.37 75.6173 102.02 76.9973 102.02C78.1773 102.02 79.2073 102.26 80.0873 102.74C80.9873 103.22 81.6773 103.85 82.1573 104.63V102.26H87.2873V119H82.1573V116.63C81.6573 117.41 80.9573 118.04 80.0573 118.52C79.1773 119 78.1473 119.24 76.9673 119.24C75.6073 119.24 74.3673 118.89 73.2473 118.19C72.1273 117.47 71.2373 116.46 70.5773 115.16C69.9373 113.84 69.6173 112.32 69.6173 110.6ZM82.1573 110.63C82.1573 109.35 81.7973 108.34 81.0773 107.6C80.3773 106.86 79.5173 106.49 78.4973 106.49C77.4773 106.49 76.6073 106.86 75.8873 107.6C75.1873 108.32 74.8373 109.32 74.8373 110.6C74.8373 111.88 75.1873 112.9 75.8873 113.66C76.6073 114.4 77.4773 114.77 78.4973 114.77C79.5173 114.77 80.3773 114.4 81.0773 113.66C81.7973 112.92 82.1573 111.91 82.1573 110.63ZM101.199 102.08C103.159 102.08 104.719 102.72 105.879 104C107.059 105.26 107.649 107 107.649 109.22V119H102.549V109.91C102.549 108.79 102.259 107.92 101.679 107.3C101.099 106.68 100.319 106.37 99.3387 106.37C98.3587 106.37 97.5787 106.68 96.9987 107.3C96.4187 107.92 96.1287 108.79 96.1287 109.91V119H90.9987V102.26H96.1287V104.48C96.6487 103.74 97.3487 103.16 98.2287 102.74C99.1087 102.3 100.099 102.08 101.199 102.08ZM113.794 100.52C112.894 100.52 112.154 100.26 111.574 99.74C111.014 99.2 110.734 98.54 110.734 97.76C110.734 96.96 111.014 96.3 111.574 95.78C112.154 95.24 112.894 94.97 113.794 94.97C114.674 94.97 115.394 95.24 115.954 95.78C116.534 96.3 116.824 96.96 116.824 97.76C116.824 98.54 116.534 99.2 115.954 99.74C115.394 100.26 114.674 100.52 113.794 100.52ZM116.344 102.26V119H111.214V102.26H116.344ZM124.861 114.77H132.121V119H119.131V114.92L126.091 106.49H119.191V102.26H131.971V106.34L124.861 114.77ZM150.724 110.36C150.724 110.84 150.694 111.34 150.634 111.86H139.024C139.104 112.9 139.434 113.7 140.014 114.26C140.614 114.8 141.344 115.07 142.204 115.07C143.484 115.07 144.374 114.53 144.874 113.45H150.334C150.054 114.55 149.544 115.54 148.804 116.42C148.084 117.3 147.174 117.99 146.074 118.49C144.974 118.99 143.744 119.24 142.384 119.24C140.744 119.24 139.284 118.89 138.004 118.19C136.724 117.49 135.724 116.49 135.004 115.19C134.284 113.89 133.924 112.37 133.924 110.63C133.924 108.89 134.274 107.37 134.974 106.07C135.694 104.77 136.694 103.77 137.974 103.07C139.254 102.37 140.724 102.02 142.384 102.02C144.004 102.02 145.444 102.36 146.704 103.04C147.964 103.72 148.944 104.69 149.644 105.95C150.364 107.21 150.724 108.68 150.724 110.36ZM145.474 109.01C145.474 108.13 145.174 107.43 144.574 106.91C143.974 106.39 143.224 106.13 142.324 106.13C141.464 106.13 140.734 106.38 140.134 106.88C139.554 107.38 139.194 108.09 139.054 109.01H145.474ZM152.41 110.6C152.41 108.88 152.73 107.37 153.37 106.07C154.03 104.77 154.92 103.77 156.04 103.07C157.16 102.37 158.41 102.02 159.79 102.02C160.89 102.02 161.89 102.25 162.79 102.71C163.71 103.17 164.43 103.79 164.95 104.57V96.8H170.08V119H164.95V116.6C164.47 117.4 163.78 118.04 162.88 118.52C162 119 160.97 119.24 159.79 119.24C158.41 119.24 157.16 118.89 156.04 118.19C154.92 117.47 154.03 116.46 153.37 115.16C152.73 113.84 152.41 112.32 152.41 110.6ZM164.95 110.63C164.95 109.35 164.59 108.34 163.87 107.6C163.17 106.86 162.31 106.49 161.29 106.49C160.27 106.49 159.4 106.86 158.68 107.6C157.98 108.32 157.63 109.32 157.63 110.6C157.63 111.88 157.98 112.9 158.68 113.66C159.4 114.4 160.27 114.77 161.29 114.77C162.31 114.77 163.17 114.4 163.87 113.66C164.59 112.92 164.95 111.91 164.95 110.63ZM185.279 104.63C185.759 103.85 186.449 103.22 187.349 102.74C188.249 102.26 189.279 102.02 190.439 102.02C191.819 102.02 193.069 102.37 194.189 103.07C195.309 103.77 196.189 104.77 196.829 106.07C197.489 107.37 197.819 108.88 197.819 110.6C197.819 112.32 197.489 113.84 196.829 115.16C196.189 116.46 195.309 117.47 194.189 118.19C193.069 118.89 191.819 119.24 190.439 119.24C189.259 119.24 188.229 119.01 187.349 118.55C186.469 118.07 185.779 117.44 185.279 116.66V119H180.149V96.8H185.279V104.63ZM192.599 110.6C192.599 109.32 192.239 108.32 191.519 107.6C190.819 106.86 189.949 106.49 188.909 106.49C187.889 106.49 187.019 106.86 186.299 107.6C185.599 108.34 185.249 109.35 185.249 110.63C185.249 111.91 185.599 112.92 186.299 113.66C187.019 114.4 187.889 114.77 188.909 114.77C189.929 114.77 190.799 114.4 191.519 113.66C192.239 112.9 192.599 111.88 192.599 110.6ZM217.61 102.26L207.11 126.95H201.59L205.43 118.43L198.62 102.26H204.35L208.22 112.73L212.06 102.26H217.61ZM230.953 97.94V119H225.823V97.94H230.953ZM249.821 97.94V102.05H244.241V119H239.111V102.05H233.531V97.94H249.821ZM260.015 119.21C258.475 119.21 257.095 118.96 255.875 118.46C254.655 117.96 253.675 117.22 252.935 116.24C252.215 115.26 251.835 114.08 251.795 112.7H257.255C257.335 113.48 257.605 114.08 258.065 114.5C258.525 114.9 259.125 115.1 259.865 115.1C260.625 115.1 261.225 114.93 261.665 114.59C262.105 114.23 262.325 113.74 262.325 113.12C262.325 112.6 262.145 112.17 261.785 111.83C261.445 111.49 261.015 111.21 260.495 110.99C259.995 110.77 259.275 110.52 258.335 110.24C256.975 109.82 255.865 109.4 255.005 108.98C254.145 108.56 253.405 107.94 252.785 107.12C252.165 106.3 251.855 105.23 251.855 103.91C251.855 101.95 252.565 100.42 253.985 99.32C255.405 98.2 257.255 97.64 259.535 97.64C261.855 97.64 263.725 98.2 265.145 99.32C266.565 100.42 267.325 101.96 267.425 103.94H261.875C261.835 103.26 261.585 102.73 261.125 102.35C260.665 101.95 260.075 101.75 259.355 101.75C258.735 101.75 258.235 101.92 257.855 102.26C257.475 102.58 257.285 103.05 257.285 103.67C257.285 104.35 257.605 104.88 258.245 105.26C258.885 105.64 259.885 106.05 261.245 106.49C262.605 106.95 263.705 107.39 264.545 107.81C265.405 108.23 266.145 108.84 266.765 109.64C267.385 110.44 267.695 111.47 267.695 112.73C267.695 113.93 267.385 115.02 266.765 116C266.165 116.98 265.285 117.76 264.125 118.34C262.965 118.92 261.595 119.21 260.015 119.21ZM283.962 115.28H276.102L274.842 119H269.472L277.092 97.94H283.032L290.652 119H285.222L283.962 115.28ZM282.642 111.32L280.032 103.61L277.452 111.32H282.642ZM323.359 102.26L318.829 119H313.159L310.519 108.14L307.789 119H302.149L297.589 102.26H302.719L305.089 114.23L307.909 102.26H313.339L316.189 114.17L318.529 102.26H323.359ZM327.895 100.52C326.995 100.52 326.255 100.26 325.675 99.74C325.115 99.2 324.835 98.54 324.835 97.76C324.835 96.96 325.115 96.3 325.675 95.78C326.255 95.24 326.995 94.97 327.895 94.97C328.775 94.97 329.495 95.24 330.055 95.78C330.635 96.3 330.925 96.96 330.925 97.76C330.925 98.54 330.635 99.2 330.055 99.74C329.495 100.26 328.775 100.52 327.895 100.52ZM330.445 102.26V119H325.315V102.26H330.445ZM343.493 114.65V119H340.883C339.023 119 337.573 118.55 336.533 117.65C335.493 116.73 334.973 115.24 334.973 113.18V106.52H332.933V102.26H334.973V98.18H340.103V102.26H343.463V106.52H340.103V113.24C340.103 113.74 340.223 114.1 340.463 114.32C340.703 114.54 341.103 114.65 341.663 114.65H343.493ZM356.64 102.08C358.56 102.08 360.1 102.72 361.26 104C362.42 105.26 363 107 363 109.22V119H357.9V109.91C357.9 108.79 357.61 107.92 357.03 107.3C356.45 106.68 355.67 106.37 354.69 106.37C353.71 106.37 352.93 106.68 352.35 107.3C351.77 107.92 351.48 108.79 351.48 109.91V119H346.35V96.8H351.48V104.51C352 103.77 352.71 103.18 353.61 102.74C354.51 102.3 355.52 102.08 356.64 102.08ZM378.053 97.94V119H372.923V97.94H378.053ZM386.9 102.05V106.31H393.77V110.27H386.9V114.89H394.67V119H381.77V97.94H394.67V102.05H386.9ZM403.131 102.05V106.31H410.001V110.27H403.131V114.89H410.901V119H398.001V97.94H410.901V102.05H403.131ZM419.361 102.05V106.31H426.231V110.27H419.361V114.89H427.131V119H414.231V97.94H427.131V102.05H419.361Z" fill="white"/>
</svg>
