<svg width="705" height="88" viewBox="0 0 705 88" fill="none" xmlns="http://www.w3.org/2000/svg">
<path d="M114.088 34.496C114.088 15.424 98.6 2.368 72.104 2.368H18.344L0.808001 24.64H74.536C82.728 24.64 87.464 28.352 87.464 34.368C87.464 40.256 82.728 44.224 74.536 44.224H0.808001V88H27.176V66.112H71.976C98.6 66.112 114.088 53.44 114.088 34.496ZM235.852 71.36C229.964 65.344 226.764 62.272 223.82 60.096C237.9 57.28 246.22 46.272 246.22 32.96C246.22 8.51199 221.644 2.368 202.188 2.368H147.148L129.868 24.64H204.364C213.452 24.64 218.956 27.968 218.956 34.624C218.956 40.512 212.556 44.224 204.364 44.224H129.868V88H156.364V65.344H197.068L216.14 88H251.596L235.852 71.36ZM399.492 88L345.988 10.56C342.276 5.184 337.028 0.959999 329.092 0.959999C320.772 0.959999 315.524 5.56799 311.94 10.56L257.028 88H288.388L328.58 31.168L343.94 53.824C346.756 57.92 350.34 63.168 352.644 66.24C348.548 65.984 342.532 65.984 337.412 65.984H315.908L299.908 88H399.492ZM498.79 2.368L471.27 28.992L444.006 2.368H407.27L433.51 26.944C446.95 39.488 450.278 42.432 453.478 44.736C450.278 47.168 446.566 50.24 433.51 62.272L405.606 88H438.502L468.582 59.712L497.766 88H535.142L507.75 62.272C493.926 49.344 490.086 45.76 487.014 43.712C490.214 41.28 494.182 37.824 506.086 27.072L533.094 2.368H498.79ZM574.059 2.368H547.563V88H574.059V2.368ZM625.882 36.544C619.738 36.544 616.794 34.88 616.794 30.528C616.794 26.176 619.738 24.64 625.882 24.64H685.274L702.298 2.368H627.93C601.946 2.368 591.194 12.864 591.194 28.992C591.194 43.712 601.306 53.568 623.322 53.568H669.914C676.186 53.568 679.002 55.36 679.002 59.712C679.002 64.192 676.186 65.984 669.914 65.984H605.146L588.122 88H667.866C693.978 88 704.602 77.504 704.602 59.968C704.602 44.352 693.338 36.544 672.474 36.544H625.882Z" fill="url(#paint0_linear_353_282)"/>
<defs>
<linearGradient id="paint0_linear_353_282" x1="7.44843" y1="-9.42855" x2="714.986" y2="51.5879" gradientUnits="userSpaceOnUse">
<stop stop-color="#FF1CF7"/>
<stop offset="1" stop-color="#00F0FF"/>
</linearGradient>
</defs>
</svg>
